<?xml version="1.0" standalone="no"?>
<!DOCTYPE svg PUBLIC "-//W3C//DTD SVG 1.1//EN" "http://www.w3.org/Graphics/SVG/1.1/DTD/svg11.dtd" >
<svg xmlns="http://www.w3.org/2000/svg">
<metadata></metadata>
<defs>
<font id="pf_square_sans_prothin_italic" horiz-adv-x="1085" >
<font-face units-per-em="2048" ascent="1536" descent="-512" />
<missing-glyph horiz-adv-x="491" />
<glyph horiz-adv-x="0" />
<glyph horiz-adv-x="682" />
<glyph unicode=" "  horiz-adv-x="491" />
<glyph unicode="&#x09;" horiz-adv-x="491" />
<glyph unicode="&#xa0;" horiz-adv-x="491" />
<glyph unicode="!" horiz-adv-x="405" d="M65.5 1q-6.5 19 0.5 46q4 29 19 46.5t54 17.5q37 0 45 -17.5t2 -46.5q-4 -29 -18 -47t-55 -18t-47.5 19zM162 313l180 1028q4 16 16 17h66q12 0 8 -17l-229 -1028q-4 -12 -10 -12h-23q-12 0 -8 12z" />
<glyph unicode="&#x22;" horiz-adv-x="458" d="M244 1022l45 321q4 14 18 15h45q10 0 8 -15l-81 -321q-2 -12 -13 -12h-16q-6 0 -6 12zM406 1022l45 321q0 14 16 15h45q12 0 10 -15l-84 -321q-2 -12 -12 -12h-14q-10 0 -6 12z" />
<glyph unicode="#" d="M-33 522l8 23q4 14 19 14h272l133 313h-260q-14 0 -10 17l8 24q2 12 19 13h266l180 420q4 12 19 12h26q16 0 12 -12l-180 -420h303l181 420q4 12 16 12h29q16 0 12 -12l-180 -420h272q16 0 10 -17l-8 -26q-2 -10 -16 -11h-281l-133 -313h270q16 0 11 -14l-11 -27 q-4 -12 -18 -12h-274l-211 -494q-4 -12 -19 -12h-31q-12 0 -8 12l211 494h-303l-211 -494q-4 -12 -18 -12h-29q-14 0 -10 12l211 494h-269q-14 0 -8 16zM324 559h303l133 313h-303z" />
<glyph unicode="$" d="M33 68l8 22q4 12 22 10q45 -6 95.5 -11t99.5 -8t93 -5t77 -2q84 0 161 19.5t135 61.5t92 105.5t34 153.5q0 61 -22.5 104t-60.5 73t-88 46t-106 27q-84 14 -150.5 31.5t-113.5 49t-71.5 80.5t-24.5 125q0 98 37 172t98.5 124t144 77t175.5 31l32 166q0 10 13 10h41 q10 0 6 -10l-33 -166q86 0 169 -8.5t151 -32.5q12 -4 6 -19l-6 -22q-4 -6 -7.5 -9t-13.5 -1q-18 2 -57 6t-86 8t-97.5 6t-89.5 2q-80 0 -152.5 -20.5t-128 -62.5t-88 -105.5t-32.5 -147.5q0 -53 23.5 -88t62.5 -58.5t91 -37.5t112 -25q68 -12 131 -30.5t112.5 -54.5t78 -92 t28.5 -144q0 -106 -37 -183t-100.5 -127.5t-148.5 -76t-181 -31.5l-37 -182q-2 -12 -14 -13h-37q-6 0 -9 1t-1 12l37 182q-33 0 -85.5 4t-106.5 10t-102.5 15.5t-72.5 19.5q-12 8 -6 19z" />
<glyph unicode="%" horiz-adv-x="1419" d="M78 786q0 47 7 96.5t17 96.5q10 49 30 115.5t58.5 128t103 103.5t165.5 42q70 0 116 -16.5t72.5 -46t36.5 -69.5t10 -87q0 -27 -5 -79t-15 -97q-18 -76 -41 -149.5t-62 -131t-102.5 -92.5t-165.5 -35q-68 0 -110.5 17.5t-68.5 47t-36 69.5t-10 87zM143 797q0 -78 36 -127 t134 -49q74 0 123 28.5t82 76.5t53.5 109.5t36.5 129.5q23 100 23 174q0 80 -37 128t-139 48q-74 0 -123 -31t-83 -81t-53.5 -112.5t-31.5 -125.5q-8 -45 -14.5 -87t-6.5 -81zM274 -35l842 1458q4 10 14 11h52q10 0 6 -11l-842 -1458q-4 -8 -6 -10t-10 -2h-49q-14 0 -7 12z M762 211q0 47 7 96t17 96q10 49 30 116t58.5 128.5t103 103.5t165.5 42q70 0 116 -16.5t72.5 -46.5t36.5 -69.5t10 -87.5q0 -41 -5 -86t-15 -90q-12 -59 -32.5 -129.5t-61.5 -132t-108 -103.5t-169 -42q-68 0 -110.5 17.5t-68.5 47t-36 69.5t-10 87zM827 221q0 -78 36 -127 t134 -49q74 0 123 28.5t82 77t53.5 110t36.5 128.5q23 100 23 174q0 80 -37 128t-139 48q-74 0 -123 -30.5t-83 -80.5t-53.5 -112.5t-31.5 -126.5q-8 -45 -14.5 -87t-6.5 -81z" />
<glyph unicode="&#x26;" horiz-adv-x="1347" d="M47 262q0 113 39 195t103.5 143.5t144.5 106.5t164 86q-59 147 -60 266q0 61 17.5 119.5t54.5 102.5t93 70.5t134 26.5q111 0 167.5 -57t56.5 -143q0 -80 -32 -140.5t-85 -107.5t-121 -85t-141 -75q57 -135 146 -274.5t192 -259.5q135 109 232 253t142 297q4 14 17 15 l32 -2q12 0 9 -17q-45 -170 -149.5 -322.5t-246.5 -264.5q66 -72 129.5 -132.5t122.5 -101.5q12 -10 4 -20l-22 -29q-8 -10 -15.5 -9t-11.5 5q-125 94 -260 248q-117 -82 -245 -128t-263 -46q-74 0 -138 18t-110.5 54t-73 88.5t-26.5 119.5zM111 270q0 -55 23.5 -99 t63.5 -73.5t91 -46t108 -16.5q127 0 246 44t225 118q-104 125 -196 265t-152 277q-78 -39 -151.5 -81t-131 -96t-92 -125.5t-34.5 -166.5zM508 1069q0 -111 53 -248q68 33 128.5 67t106.5 73.5t72.5 89t26.5 114.5q0 70 -44 111t-122 41q-55 0 -96 -22.5t-68.5 -57.5 t-42 -79t-14.5 -89z" />
<glyph unicode="'" horiz-adv-x="352" d="M270 1022l45 321q4 14 19 15h45q10 0 8 -15l-82 -321q-2 -12 -12 -12h-17q-6 0 -6 12z" />
<glyph unicode="(" horiz-adv-x="538" d="M147 326q0 330 117 599t342 511q8 8 17 6l12 -8q8 -5 -2 -19q-201 -231 -305.5 -514t-104.5 -588q0 -197 34 -319.5t69 -192.5q6 -12 -2 -16l-17 -8q-12 -6 -16 2q-25 45 -49.5 97t-46 117.5t-35 147.5t-13.5 185z" />
<glyph unicode=")" horiz-adv-x="538" d="M2 -215q-6 4 2 16q96 106 175 239.5t134.5 281t85 300t29.5 298.5q0 94 -10 171.5t-25.5 140t-34 108.5t-32.5 75q-6 12 4 19l16 8q8 2 14 -6q68 -127 106 -260.5t38 -286.5q0 -156 -34 -305.5t-96.5 -290.5t-149.5 -270t-191 -244q-6 -6 -10.5 -6t-8.5 4z" />
<glyph unicode="*" horiz-adv-x="595" d="M207 997q-4 8 10 17l166 98l-129 100q-6 4 -7 6.5t7 10.5l10 14q8 8 19 4l145 -82l45 176q2 6 3 9.5t11 3.5h21q8 0 8 -13l-24 -176l167 74q8 4 11.5 4t7.5 -8l6 -12q4 -6 -8 -17l-166 -96l129 -100q4 -4 5 -6.5t-5 -12.5l-14 -16q-6 -8 -17 -2l-139 82l-41 -176 q-4 -12 -14 -13h-21q-10 0 -8 13l21 178l-179 -80q-10 -6 -14 2z" />
<glyph unicode="+" horiz-adv-x="1058" d="M201 649l8 43q2 12 14 13h330l65 337q2 12 15 13h45q8 0 6 -13l-66 -337h330q10 0 10 -13l-10 -45q0 -8 -12 -8h-330l-67 -346q-2 -12 -13 -12h-45q-10 0 -8 12l66 346h-328q-12 0 -10 10z" />
<glyph unicode="," horiz-adv-x="346" d="M-25 -233q-5 6 5 14q37 31 60 73t23 91q0 57 -20 96q-4 12 8 20l80 48q14 6 23 -3q10 -16 15 -37.5t5 -39.5q0 -35 -15.5 -76t-40 -79t-55 -69.5t-59.5 -50.5q-12 -8 -14 -2z" />
<glyph unicode="-" horiz-adv-x="704" d="M119 633l12 55q2 12 14 12h541q10 0 10 -12l-12 -57q-2 -8 -12 -8h-543q-10 0 -10 10z" />
<glyph unicode="." horiz-adv-x="280" d="M0 20q0 39 18.5 65t59.5 26q20 0 35.5 -8.5t15.5 -30.5q0 -39 -18.5 -64.5t-59.5 -25.5q-23 0 -37 8t-14 30z" />
<glyph unicode="/" horiz-adv-x="471" d="M-100 -127l675 1532q4 12 17 12h51q10 0 11 -2t-3 -10l-676 -1532q-4 -10 -14 -10h-51q-14 0 -10 10z" />
<glyph unicode="0" d="M102 354q0 88 13.5 173t29.5 171q25 123 64 244t105.5 217t168 155.5t248.5 59.5q195 0 283 -96t88 -285q0 -76 -10.5 -149.5t-24.5 -145.5q-25 -129 -63.5 -257t-108.5 -230t-175 -165.5t-261 -63.5q-190 0 -273.5 95t-83.5 277zM180 362q0 -154 66.5 -234.5 t226.5 -80.5q135 0 224 57.5t146.5 148.5t89.5 203.5t54 221.5q16 78 28.5 159t12.5 162q0 160 -73.5 237t-235.5 77q-133 0 -220 -59.5t-142.5 -152.5t-86 -206t-51.5 -217q-16 -78 -27.5 -158t-11.5 -158z" />
<glyph unicode="1" d="M152 10l8 47q2 10 16 11h279l227 1169h-260q-12 0 -10 10l2 19q2 10 12 14l250 66q16 4 29.5 8t25.5 4h37q10 0 10 -15l-248 -1275h291q14 0 13 -11l-11 -47q0 -10 -14 -10h-647q-14 0 -10 10z" />
<glyph unicode="2" d="M20 20l7 29q4 12 13 25.5t32 34.5q51 43 125.5 108.5t160.5 141t179.5 156.5t181.5 157q45 37 89 81t79 95t57.5 109.5t22.5 123.5q0 109 -75 163t-233 54q-27 0 -68.5 -2t-88.5 -6t-97.5 -8t-93.5 -10q-14 -2 -14 10v23q0 14 14 18q37 14 85 23.5t97.5 15.5t96.5 9t82 3 q106 0 178 -20.5t116 -60.5t63.5 -96t19.5 -128t-27 -134.5t-67 -117.5t-87 -101t-86 -83q-78 -68 -164 -142.5t-173 -149.5t-169.5 -145.5t-152.5 -127.5h745q12 0 11 -11l-9 -47q-4 -10 -16 -10h-817q-23 0 -17 20z" />
<glyph unicode="3" d="M29 51l8 23q4 12 20 10q41 -6 89.5 -11t95.5 -9.5t88 -6.5t67 -2q227 0 360.5 118t133.5 347q0 88 -59.5 127t-151.5 55l-238 43q-16 0 -12 17l8 47q2 16 27 37l541 442h-711q-12 0 -12 10l10 50q2 10 16 10h778q18 0 15 -17l-8 -43q-4 -20 -10.5 -29t-16.5 -18 l-541 -444l205 -37q104 -18 174 -71.5t70 -159.5q0 -276 -154.5 -416.5t-429.5 -140.5q-37 0 -85 3t-97 9t-95 15t-79 24q-10 4 -6 18z" />
<glyph unicode="4" d="M35 408l6 36q4 27 27 48l864 849q10 10 21.5 13.5t21.5 3.5h43q4 -2 7 -3t1 -9l-174 -887h186q14 0 13 -10l-9 -48q-4 -10 -16 -10h-186l-74 -379q-2 -12 -12 -12h-54q-10 0 -8 12l72 379h-717q-16 0 -12 17zM123 459h655l154 790z" />
<glyph unicode="5" d="M25 51l8 23q4 12 20 10q41 -6 89 -11t95.5 -9.5t88.5 -6.5t67 -2q104 0 194.5 29t157 87t104.5 143t38 200q2 90 -57.5 131t-153.5 57l-449 76q-27 6 -16 35l182 524q8 18 29 19h649q14 0 12 -10l-8 -48q-4 -10 -18 -10h-608l-156 -446l440 -72q104 -16 168 -68.5 t68 -148.5q6 -135 -36 -241.5t-120 -179.5t-187.5 -111.5t-238.5 -38.5q-37 0 -85 3t-97 9t-95.5 15t-78.5 24q-10 4 -6 18z" />
<glyph unicode="6" d="M80 270q0 78 14.5 164t34.5 191q27 141 69 275t113.5 238.5t183 169t277.5 64.5q31 0 74 -2t87 -7t86 -13.5t73 -20.5q12 -2 8 -18l-8 -23q-4 -6 -6.5 -9t-12.5 -1q-61 4 -149 12t-168 8q-129 0 -217 -46t-148.5 -123.5t-97.5 -180t-62 -215.5q100 10 171 17.5 t126.5 12.5t101.5 7t97 2q139 0 213 -65.5t70 -219.5q-4 -258 -149.5 -381.5t-403.5 -123.5q-111 0 -183.5 19t-115.5 56t-60.5 90.5t-17.5 122.5zM156 266q0 -72 27.5 -114.5t72.5 -67.5t102.5 -33t118.5 -8q219 0 337 113.5t118 330.5q-2 102 -55.5 158.5t-188.5 56.5 q-63 0 -177 -8t-294 -28q-25 -109 -43 -215.5t-18 -184.5z" />
<glyph unicode="7" d="M209 20q-14 4 0 19l858 1251h-807q-12 0 -10 13l8 40q2 14 16 15h871q8 0 12 -6t2 -11l-6 -38q-4 -12 -10 -21.5t-13 -19.5l-860 -1256q-8 -12 -20 -6z" />
<glyph unicode="8" d="M43 264q0 98 30.5 174t84 131.5t124 92t152.5 59.5v4q-88 25 -147.5 91.5t-59.5 160.5q0 106 41 182t109.5 124t157 70.5t182.5 22.5q70 0 135.5 -14t115.5 -48t79.5 -88.5t29.5 -133.5q0 -76 -24.5 -138.5t-68.5 -110.5t-105.5 -79t-133.5 -43l-2 -4 q111 -29 183.5 -99.5t72.5 -193.5q0 -117 -47 -201t-124.5 -137t-177.5 -78.5t-204 -25.5q-70 0 -141.5 12t-129.5 45t-95 87t-37 138zM129 281q0 -72 29.5 -117t77 -71.5t106.5 -36t119 -9.5q84 0 166 21.5t146.5 66.5t104.5 114t40 165q0 74 -32 120t-81 76.5t-109.5 49 t-115.5 34.5q-88 -18 -169 -45.5t-143.5 -74t-100.5 -117t-38 -176.5zM307 975q0 -59 29 -97t73 -64t95 -41t98 -28q76 14 148.5 37t128 61t89 98.5t33.5 152.5q0 63 -24.5 105t-65.5 67.5t-93 36t-107 10.5q-158 0 -262.5 -62.5t-135.5 -226.5q-6 -25 -6 -49z" />
<glyph unicode="9" d="M94 43l8 23q2 6 5.5 9t13.5 1q59 -6 147 -14.5t170 -8.5q129 0 217 46t147.5 124t96.5 180.5t62 217.5q-100 -10 -171 -18.5t-126.5 -12.5t-101.5 -6t-97 -2q-63 0 -115.5 15t-90.5 50t-58.5 88t-18.5 131q4 256 150.5 381t402.5 125q111 0 184.5 -19.5t116.5 -56 t60.5 -90t17.5 -123.5q0 -78 -15.5 -165t-35.5 -191q-27 -141 -68 -275.5t-113.5 -238.5t-183 -167.5t-278.5 -63.5q-31 0 -74 2t-87 7t-86 12t-73 20q-12 8 -6 20zM262 866q0 -102 54.5 -158.5t189.5 -56.5q61 0 175 8.5t294 28.5q10 51 21.5 105.5t20.5 106.5t14 100.5 t5 86.5q0 70 -27.5 113t-72.5 67.5t-102.5 33t-116.5 8.5q-219 0 -338 -113t-117 -330z" />
<glyph unicode=":" horiz-adv-x="346" d="M41 27q0 39 17.5 63.5t58.5 24.5q23 0 37 -7.5t14 -31.5q0 -37 -18.5 -63.5t-59.5 -26.5q-23 0 -36 8t-13 33zM193 813q0 39 17 63.5t58 24.5q23 0 37 -7t14 -32q0 -37 -17 -63.5t-58 -26.5q-23 0 -37 8t-14 33z" />
<glyph unicode=";" horiz-adv-x="346" d="M-33 -233q-6 6 4 14q37 31 60.5 74t23.5 90q0 57 -20 96q-4 12 8 20l80 48q14 6 22 -3q10 -16 15.5 -37.5t5.5 -39.5q0 -35 -15.5 -76t-40 -79t-55 -69.5t-59.5 -50.5q-12 -8 -14 -2zM193 813q0 39 17 63.5t58 24.5q23 0 37 -7t14 -32q0 -37 -17 -63.5t-58 -26.5 q-23 0 -37 8t-14 33z" />
<glyph unicode="&#x3c;" d="M209 649l8 37q2 10 6 14.5t19 12.5l778 393q23 10 26 5t1 -13l-7 -37q-4 -16 -9 -21.5t-15 -9.5l-731 -364v-2l594 -332q12 -8 15 -14.5t-1 -22.5l-6 -23q-2 -20 -25 -10l-635 363q-20 14 -18 24z" />
<glyph unicode="=" d="M178 483l8 43q2 12 17 13h725q10 0 8 -13l-8 -45q-2 -8 -15 -8h-725q-10 0 -10 10zM246 827l8 43q2 12 14 13h725q12 0 11 -13l-9 -45q-2 -8 -14 -8h-725q-12 0 -10 10z" />
<glyph unicode="&#x3e;" d="M135 272l6 33q4 16 9.5 22.5t21.5 14.5l721 332v2l-588 364q-10 4 -13 9.5t1 21.5l6 27q2 8 6 13t21 -5l626 -393q18 -12 17 -27l-8 -37q-2 -12 -27 -24l-778 -363q-23 -10 -21 10z" />
<glyph unicode="?" horiz-adv-x="692" d="M106 20q0 39 18.5 65t59.5 26q20 0 36 -8.5t16 -30.5q0 -39 -18.5 -64.5t-59.5 -25.5q-23 0 -37.5 8t-14.5 30zM172 313q4 41 15.5 90.5t15.5 73.5q12 61 41.5 115.5t71.5 103.5t94.5 92t107.5 80q39 27 74 50.5t61.5 53t43 66.5t16.5 88t-19.5 85t-54.5 54.5t-81 29 t-99 8.5q-12 0 -40 -1.5t-61.5 -2.5t-68.5 -3t-60 -4q-10 -2 -12 1t-2 10v20q0 14 14 18q27 8 61 14.5t68.5 9.5t68.5 5t58 2q47 0 100.5 -10t97.5 -37t72.5 -74t28.5 -121q0 -55 -17 -97t-46 -75.5t-67 -62t-81 -55.5q-53 -35 -103 -74t-91 -85t-72 -101.5t-45 -122.5 q-2 -10 -5 -27.5t-7 -38l-8 -41t-6 -35.5q-4 -14 -15 -14h-41q-4 0 -7 1t-1 11z" />
<glyph unicode="@" horiz-adv-x="1632" d="M133 518q0 184 66.5 345t184.5 281t279.5 188.5t350.5 68.5q139 0 252.5 -34t194.5 -96.5t126 -153.5t49 -208q2 -92 -23.5 -197.5t-79.5 -195.5t-135 -150.5t-190 -60.5q-86 0 -130 31t-54 104q-29 -16 -69 -33.5t-85 -33t-92 -25.5t-90 -10q-92 0 -136 42t-44 140 q0 33 7 85t15 97q18 98 46 172t71 123.5t103.5 74t146.5 24.5q57 0 118.5 -14.5t121.5 -41.5l6 25q4 10 5 11t11 1h39q12 0 10 -12l-116 -565q-4 -23 -3 -47.5t12 -44t34.5 -33t66.5 -13.5q92 0 162 53.5t117 133.5t70.5 173t21.5 173q-2 106 -43 190t-116 141.5t-179.5 87 t-230.5 29.5q-166 0 -313.5 -62t-257 -172t-173 -257t-63.5 -315q0 -119 41 -214.5t115.5 -163t181 -103.5t237.5 -36q8 0 32.5 1.5t58.5 3.5t72 7t71 11q10 4 10 -6l4 -25q0 -6 -6 -8q-51 -20 -125 -29.5t-144 -9.5q-137 0 -249.5 39t-192.5 111.5t-125 174t-45 228.5z M575 530q0 -84 34 -109.5t100 -25.5q31 0 74.5 11.5t89 27t86 32.5t65.5 30l100 491q-66 29 -129 40t-116 11q-59 0 -103.5 -19.5t-77 -60t-57.5 -104t-45 -154.5q-10 -45 -15.5 -93t-5.5 -77z" />
<glyph unicode="A" horiz-adv-x="1069" d="M-43 2q-1 1 -1 2q0 3 3 8l703 1331q6 10 10 11.5t10 1.5h63q12 0 13 -15l190 -1329q0 -8 -1 -10t-11 -2h-51q-4 0 -8.5 1t-6.5 11l-47 371h-592l-188 -371q-4 -10 -8 -11t-10 -1h-56q-10 0 -12 2zM268 451h545l-113 819h-4z" />
<glyph unicode="B" horiz-adv-x="1075" d="M53 16l258 1325q0 14 17 15h417q172 0 248 -78t76 -209q0 -127 -71.5 -226.5t-198.5 -135.5v-2q59 -25 95 -61t56.5 -77t26.5 -83t6 -78q0 -86 -29.5 -160t-82 -128.5t-125 -86t-158.5 -31.5h-514q-16 0 -20 5q-2 3 -2 7q0 2 1 4zM141 68h389q82 0 151 21.5t118 64.5 t76.5 106.5t27.5 147.5q0 51 -18.5 99t-53 85t-85 59.5t-113.5 22.5h-375zM270 739h348q74 0 141.5 23.5t118 66.5t81 103.5t30.5 136.5q0 100 -65.5 159.5t-202.5 59.5h-344z" />
<glyph unicode="C" horiz-adv-x="1046" d="M160 389q0 20 2 52t5 69t9 77t12 77q25 141 70 269t121 225t185.5 155.5t264.5 58.5q33 0 80 -2t94.5 -6t91.5 -12.5t74 -20.5q10 -2 10 -12q0 -3 -1 -6l-9 -23l-6 -9t-12 -1q-31 2 -69 5t-79.5 6t-86 5t-82.5 2q-147 0 -247 -57t-163.5 -147t-99 -204t-56.5 -226 q-14 -70 -20 -142.5t-6 -120.5q0 -74 17 -137t58 -109t108 -72t163 -26q35 0 79 1t88 4.5t87 5.5t73 6q16 0 17 -13l-2 -22q0 -12 -15 -19q-35 -12 -86 -19t-104 -11t-98 -6t-68 -2q-113 0 -189.5 29.5t-122.5 84t-66.5 129t-20.5 164.5z" />
<glyph unicode="D" horiz-adv-x="1210" d="M74 14l258 1327q4 14 24 15h359q123 0 207 -33t135 -92.5t72.5 -142t21.5 -183.5q0 -53 -5 -108.5t-16 -114.5q-23 -147 -65.5 -272t-116.5 -216.5t-185.5 -142.5t-268.5 -51h-402q-14 0 -16 4t-2 10zM162 66h334q137 0 232 50t159.5 134t102.5 191.5t59 224.5 q10 57 15 113.5t5 109.5q0 82 -16.5 154.5t-56.5 127t-105.5 86t-163.5 31.5h-328z" />
<glyph unicode="E" horiz-adv-x="964" d="M61 10l258 1333q4 14 15 15h704q12 0 12 -8q0 -2 -1 -4l-9 -46q-4 -12 -14 -12h-641l-106 -549h577q12 0 8 -10l-8 -41q0 -14 -14 -14h-576l-119 -606h654q14 0 12 -11l-10 -47q-2 -10 -15 -10h-718q-10 0 -10 6q0 2 1 4z" />
<glyph unicode="F" horiz-adv-x="917" d="M68 14l258 1329q4 14 14 15h694q11 0 11 -7q0 -2 -1 -5l-8 -46q-4 -12 -14 -12h-631l-106 -549h559q12 0 8 -10l-8 -41q0 -14 -15 -14h-557l-127 -660q-2 -14 -14 -14h-53q-12 0 -10 14z" />
<glyph unicode="G" horiz-adv-x="1183" d="M152 395q0 59 6 126t22 143q25 141 70 269t120.5 225t185.5 155.5t265 58.5q33 0 80 -2t94 -6t91 -12.5t75 -20.5q9 -1 9 -11q0 -3 -1 -7l-8 -23l-6 -9t-12 -1q-31 2 -69 5t-80 6t-86 5t-83 2q-147 0 -246.5 -56t-163 -147t-99 -204t-56.5 -225q-14 -70 -21.5 -134.5 t-7.5 -128.5q0 -74 18.5 -137t62.5 -111.5t117 -75t181 -26.5q31 0 69 3t78 9.5t77.5 14.5t68.5 18l98 514h-213q-14 0 -12 15l8 49q4 10 19 10h278q14 0 11 -14l-115 -588q-4 -20 -14.5 -34.5t-34.5 -20.5q-168 -45 -336 -45q-229 0 -334.5 102t-105.5 309z" />
<glyph unicode="H" horiz-adv-x="1167" d="M68 12l260 1334q2 12 12 12h53q10 0 8 -12l-114 -592h725l114 592q2 12 17 12h51q10 0 8 -12l-260 -1334q-2 -12 -12 -12h-49q-14 0 -13 12l131 676h-725l-131 -676q-2 -12 -14 -12h-53q-10 0 -8 12z" />
<glyph unicode="I" horiz-adv-x="458" d="M111 12l260 1334q2 12 12 12h53q10 0 8 -12l-258 -1334q-2 -12 -14 -12h-53q-10 0 -8 12z" />
<glyph unicode="J" horiz-adv-x="899" d="M-54 26q-1 1 -1 3q0 3 2 8l8 22q6 14 22 13q78 -10 135.5 -12.5t82.5 -2.5q90 0 150.5 22.5t98 63.5t60 98.5t35.5 127.5l190 977q2 12 12 12h56q8 0 8 -12l-197 -1012q-16 -78 -43.5 -142.5t-75 -111.5t-117 -73.5t-167.5 -26.5q-20 0 -52 2t-68 6t-70.5 12t-61.5 18 q-4 4 -7 8z" />
<glyph unicode="K" horiz-adv-x="1073" d="M61 12l261 1334q2 12 12 12h53q10 0 8 -12l-164 -836l852 836q6 6 10.5 9t16.5 3h59q11 0 11 -6q0 -5 -6 -9l-551 -542l317 -785q6 -16 -14 -16h-43q-16 0 -23 12l-291 742l-358 -359l-74 -383q-2 -12 -14 -12h-53q-10 0 -9 12z" />
<glyph unicode="L" horiz-adv-x="937" d="M72 12l258 1331q2 14 16 15h49q10 0 8 -15l-247 -1273h678q10 0 8 -13l-8 -47q-4 -10 -15 -10h-739q-9 0 -9 7q0 2 1 5z" />
<glyph unicode="M" horiz-adv-x="1460" d="M70 14l260 1329q4 14 16 15h49q10 0 12.5 -2t6.5 -10l293 -1024h2l686 1019q8 10 10 13.5t18 3.5h54q13 0 13 -11q0 -3 -1 -6l-256 -1327q-2 -14 -14 -14h-50q-14 0 -12 14l232 1188h-5l-649 -956q-8 -14 -18 -15h-45q-14 0 -19 13l-274 958h-4l-232 -1188q0 -14 -12 -14 h-49q-14 0 -12 14z" />
<glyph unicode="N" horiz-adv-x="1234" d="M63 14l261 1329q4 14 16 15h47q10 0 12 -3t7 -9l548 -1221h4l240 1218q2 14 14 15h50q14 0 12 -15l-260 -1329q-4 -14 -17 -14h-55q-10 0 -11 2l-5 10l-549 1215h-4l-236 -1213q0 -14 -12 -14h-49q-14 0 -13 14z" />
<glyph unicode="O" horiz-adv-x="1261" d="M152 403q0 74 9 149t23 146q23 127 68 249t118.5 217.5t181 152.5t255.5 57q211 0 307 -104.5t96 -311.5q0 -66 -7 -130t-17 -130q-25 -141 -68 -270t-117.5 -228.5t-187 -158.5t-276.5 -59q-209 0 -297 112.5t-88 308.5zM223 410q0 -168 74 -264.5t252 -96.5 q137 0 233.5 54.5t161 143.5t102 201.5t60.5 229.5q14 66 22.5 133t8.5 137q0 176 -80 267.5t-262 91.5q-135 0 -228.5 -56.5t-156 -146.5t-99.5 -201.5t-57 -224.5q-14 -66 -22.5 -133.5t-8.5 -134.5z" />
<glyph unicode="P" horiz-adv-x="987" d="M53 14l258 1332q4 12 17 12l379 -2q150 0 240.5 -73t90.5 -224q0 -102 -30.5 -188.5t-89 -149t-142.5 -98t-190 -35.5h-346l-113 -574q-2 -14 -14 -14h-50q-12 0 -10 14zM252 651h323q92 0 164 30t121 84t76 129t27 165q0 59 -21.5 103t-59.5 72t-90.5 41t-111.5 13h-305 z" />
<glyph unicode="Q" horiz-adv-x="1259" d="M152 403q0 74 9 149t23 146q23 127 68 249t118.5 217.5t181 152.5t255.5 57q211 0 307 -104.5t96 -311.5q0 -66 -7 -130t-17 -130q-20 -115 -52 -222t-82.5 -197.5t-123 -159t-174.5 -103.5l299 -88q6 -2 8 -7t0 -9l-37 -68q-4 -7 -14 -7q-4 0 -9 1l-387 148 q-18 -2 -37.5 -3t-39.5 -1q-209 0 -297 112.5t-88 308.5zM223 410q0 -168 74 -264.5t252 -96.5q137 0 233.5 54.5t161 143.5t102 201.5t60.5 229.5q14 66 22.5 133t8.5 137q0 176 -80 267.5t-262 91.5q-135 0 -228.5 -56.5t-156 -146.5t-99.5 -201.5t-57 -224.5 q-14 -66 -22.5 -133.5t-8.5 -134.5z" />
<glyph unicode="R" horiz-adv-x="1017" d="M57 14l258 1332q4 12 17 12l377 -2q78 0 140 -17.5t106 -57.5t68 -103.5t24 -155.5q0 -76 -25 -142.5t-69 -119.5t-106.5 -90t-135.5 -52l166 -602q6 -16 -9 -16h-57q-10 0 -14 2t-9 14l-155 592h-385l-117 -594q-2 -14 -14 -14h-49q-12 0 -11 14zM260 672h334 q80 0 148.5 24.5t117.5 69.5t78 109.5t29 142.5q0 76 -21.5 128t-60.5 84t-90.5 45t-110.5 13h-305z" />
<glyph unicode="S" horiz-adv-x="1024" d="M27 53l8 23q6 12 20 10q45 -6 96.5 -11t100.5 -9.5t93 -6.5t77 -2q86 0 163 20.5t135 62.5t93 108t35 158q0 63 -22.5 108t-61.5 74.5t-89 46t-106 27.5q-84 14 -150.5 32.5t-113.5 51t-72.5 83t-25.5 127.5q0 104 40 182.5t106.5 129.5t155.5 76.5t187 25.5 q90 0 182.5 -7t165.5 -36q9 -3 9 -10q0 -4 -2 -8l-7 -23q-4 -6 -7 -9t-13 -1q-18 2 -57 6t-87.5 8t-97.5 6t-90 2q-80 0 -153.5 -21.5t-129 -64.5t-88 -107.5t-32.5 -150.5q0 -55 23.5 -91t63.5 -59.5t92 -37.5t112 -25q70 -12 133 -31.5t112 -56.5t78 -94t29 -147 q0 -117 -42 -199t-113.5 -133t-166 -74.5t-200.5 -23.5q-33 0 -86.5 4t-108.5 11t-105.5 16.5t-76.5 19.5q-8 4 -8 12q0 3 2 8z" />
<glyph unicode="T" horiz-adv-x="931" d="M205 1300l10 46q0 12 12 12h846q9 0 9 -7q0 -2 -1 -5l-8 -46q-2 -10 -14 -10h-383l-250 -1278q-2 -12 -14 -12h-50q-14 0 -12 12l248 1278h-383q-10 0 -10 10z" />
<glyph unicode="U" horiz-adv-x="1210" d="M134 347q3 61 16 128l167 866q4 16 19 17h49q12 0 8 -17l-170 -872q-14 -69 -14 -128q0 -109 47 -181q72 -112 274 -111q193 0 313 104.5t161 315.5l170 872q4 16 18 17h49q9 0 9 -10q0 -3 -1 -7l-170 -866q-14 -68 -29.5 -128t-48.5 -116q-78 -135 -193.5 -192 t-268.5 -57q-160 0 -267.5 59t-130.5 192q-8 41 -8 86q0 14 1 28z" />
<glyph unicode="V" horiz-adv-x="1089" d="M238 1346q-2 10 14 10h45q10 0 12 -10l166 -1252h6l658 1252q4 10 18 10h55q12 0 12 -2t-3 -8l-705 -1332q-6 -14 -18 -14h-64q-6 0 -9 1t-5 11z" />
<glyph unicode="W" horiz-adv-x="1615" d="M233 1346q-2 10 15 10h49q12 0 12 -10l105 -1252h6l483 1016l-20 236q-2 10 14 10h49q12 0 12 -10l105 -1252h6l596 1252q4 10 18 10h52q11 0 11 -2t-3 -8l-643 -1332q-6 -14 -19 -14h-63q-6 0 -9 1t-5 11l-89 963l-464 -961q-6 -14 -19 -14h-63q-6 0 -9.5 1t-5.5 11z " />
<glyph unicode="X" horiz-adv-x="1015" d="M-23 12l541 690l-252 644q-4 6 2 9t11 3h57q10 0 12 -4l4 -8l230 -580l452 580q4 4 8.5 8t12.5 4h63q4 0 8 -3q2 -2 2 -4t-2 -5l-503 -644l272 -690q4 -12 -12 -12h-62q-10 0 -14 12l-246 627l-491 -627q-10 -12 -21 -12h-63q-11 0 -11 6q0 2 2 6z" />
<glyph unicode="Y" horiz-adv-x="985" d="M229 1346q-1 2 -1 4q0 6 16 6h47q8 0 12 -10l229 -674l496 674q6 8 10 9t9 1h59q10 0 10 -4q0 -2 -4 -6l-551 -746l-115 -586q-2 -14 -12 -14h-49q-14 0 -12 14l112 586z" />
<glyph unicode="Z" horiz-adv-x="950" d="M-10 12l6 35q8 27 20 45l942 1196h-669q-12 0 -13 12l11 46q0 12 14 12h746q6 0 7 -4t1 -6l-11 -43q0 -8 -5 -18.5t-9 -16.5l-938 -1202h709q12 0 8 -13l-8 -41q0 -14 -13 -14h-788q-11 0 -11 7q0 2 1 5z" />
<glyph unicode="[" horiz-adv-x="464" d="M-18 -193l311 1602q0 14 12 14h256q12 0 8 -12l-6 -35q-4 -12 -14 -12h-191l-292 -1511h188q4 0 6 -3q4 -4 4 -8l-6 -35q-4 -10 -16 -10h-252q-12 0 -8 10z" />
<glyph unicode="\" horiz-adv-x="471" d="M113 1405q0 8 1 10t11 2h49q12 0 12 -12l80 -1532q2 -10 -14 -10h-49q-10 0 -10 10z" />
<glyph unicode="]" horiz-adv-x="464" d="M-37 -193l6 35q0 4 8 8q4 2 9 3h186l295 1511h-191q-10 0 -10 12l8 35q0 12 13 12h256q12 0 8 -14l-311 -1602q-4 -10 -15 -10h-252q-14 0 -10 10z" />
<glyph unicode="^" horiz-adv-x="845" d="M178 913q-10 6 0 17l346 405q6 8 12.5 14.5t24.5 6.5h90q16 0 18.5 -4t6.5 -13l174 -411q2 -4 2 -9.5t-6 -9.5l-21 -10q-10 -10 -16 0l-211 399l-381 -391q-12 -14 -18 -8z" />
<glyph unicode="_" horiz-adv-x="1024" d="M-137 -229l6 30q0 12 12 13h1024q12 0 10 -13l-6 -32q-2 -8 -14 -9h-1024q-12 0 -8 11z" />
<glyph unicode="`" horiz-adv-x="966" d="M465 1404q2 5 6 7l53 29q8 4 10.5 3t8.5 -9l186 -265q10 -12 -2 -20l-20 -14q-12 -6 -21 2l-219 258q-4 4 -2 9z" />
<glyph unicode="a" horiz-adv-x="1011" d="M84 229q0 47 7 120t18 134q27 135 60.5 235.5t85.5 167t126 99.5t178 33q90 0 174 -22.5t162 -63.5h4l10 51q2 10 5.5 11t9.5 1h49q8 0 6 -12l-186 -973q-2 -10 -13 -10h-49q-14 0 -12 10l20 113q-37 -20 -86 -45t-105 -45.5t-115.5 -34.5t-119.5 -14q-117 0 -173 58 t-56 187zM162 264q0 -119 41 -167t139 -48q45 0 103.5 16.5t117 38t109.5 45t82 37.5l135 686q-88 35 -169 58.5t-159 23.5q-80 0 -139.5 -25.5t-103.5 -83t-75.5 -147.5t-56.5 -219q-24 -124 -24 -208v-7z" />
<glyph unicode="b" horiz-adv-x="980" d="M36 38q-2 6 -1 14q0 9 2 22l262 1349q2 12 14 13h45q8 0 10.5 -1t0.5 -12l-90 -467l4 -2q117 43 203.5 53.5t146.5 10.5q86 0 143.5 -20.5t91 -59.5t48 -97.5t14.5 -133.5q0 -82 -8.5 -168t-30 -166t-57 -151.5t-92 -125t-134.5 -84t-182 -30.5q-133 0 -216 11t-147 27 q-23 6 -27 18zM109 80q66 -12 147.5 -21.5t173.5 -9.5q129 0 211 61.5t128 154.5t63.5 207t17.5 218q0 135 -47 198.5t-170 63.5q-78 0 -167 -14t-200 -45z" />
<glyph unicode="c" horiz-adv-x="802" d="M82 268v21q0 43 6 91q8 60 21 126q20 104 49.5 197.5t83 163t135.5 110.5t205 41q27 0 64.5 -2t78.5 -7t79 -13.5t66 -18.5q8 -3 8 -10q0 -3 -1 -6l-9 -21q-4 -6 -5 -8t-11 -2q-27 2 -61.5 6t-72.5 8t-75 6t-70 2q-86 0 -148.5 -23.5t-108.5 -76.5t-77.5 -138t-54.5 -206 q-12 -66 -19 -119t-7 -96q0 -131 56 -187.5t185 -56.5q31 0 69 2t77 5t73.5 6.5t63.5 7.5q16 0 16 -11l-2 -20q0 -14 -12 -16q-33 -10 -76 -18.5t-87 -13.5t-85 -7t-67 -2q-162 0 -224.5 74.5t-62.5 211.5z" />
<glyph unicode="d" horiz-adv-x="980" d="M70 236q0 51 8 117.5t21.5 134t32 132t36.5 113.5q57 143 151.5 214t253.5 71q61 0 146.5 -15.5t175.5 -56.5l6 2l90 477q2 12 13 13h53q5 0 5 -7q0 -2 -1 -6l-275 -1413q-2 -12 -10 -12h-53q-10 0 -8 12l20 109q-37 -20 -88 -45t-107.5 -45.5t-118 -34.5t-120.5 -14 q-123 0 -176 62t-55 192zM147 270q0 -119 45.5 -170t137.5 -51q45 0 105.5 15.5t119.5 38t111.5 45t83.5 38.5l137 709q-96 31 -177 45t-159 14q-111 0 -184.5 -54t-124.5 -175q-18 -43 -35 -101.5t-30 -122t-21.5 -124t-8.5 -107.5z" />
<glyph unicode="e" horiz-adv-x="966" d="M102 252q0 72 15.5 142.5t29.5 142.5q14 80 45 163.5t88.5 154.5t148.5 116t230 45q55 0 106.5 -15.5t90.5 -43t61.5 -68.5t22.5 -90q0 -90 -37 -154.5t-98.5 -110t-139 -74t-160.5 -44t-164 -21.5t-146 -6q-10 -47 -13.5 -81t-3.5 -62q0 -115 68.5 -155t175.5 -40 q86 0 171 7.5t171 15.5q16 0 16 -11l-2 -20q0 -14 -12 -16q-35 -12 -83 -21.5t-99.5 -14.5t-101.5 -7t-87 -2q-145 0 -219 59t-74 211zM203 451q45 0 112.5 4t141 16t147.5 34.5t132.5 58.5t95 87t36.5 121q0 55 -21.5 91t-54 56.5t-71.5 28.5t-76 8q-127 0 -205 -46 t-123 -111q-35 -53 -53 -110.5t-33 -119.5z" />
<glyph unicode="f" horiz-adv-x="602" d="M-299 -289l10 21q4 10 9.5 11t21.5 -3q53 -10 90 -13t59 -3q98 0 143.5 43t65.5 145l201 1030h-158q-12 0 -12 10l6 33q2 12 19 12h155l37 199q25 129 95.5 190.5t197.5 61.5q29 0 77 -5t107 -28q18 -6 18 -16q0 -3 -1 -6l-11 -21q-4 -10 -9 -11t-21 3q-53 10 -90 13 t-60 3q-98 0 -154.5 -43t-76.5 -145l-37 -195h281q10 0 8 -10l-6 -35q-4 -10 -15 -10h-280l-199 -1034q-25 -129 -84 -190.5t-186 -61.5q-29 0 -77 5t-108 28q-18 6 -18 16q0 3 2 6z" />
<glyph unicode="g" horiz-adv-x="980" d="M53 -322l8 21q2 10 19 10q72 -8 144.5 -15t146.5 -7q82 0 141 13t100 44t67 82t40 127l18 92l-6 2q-117 -43 -204 -53t-146 -10q-86 0 -142.5 20.5t-90 59t-48 97t-14.5 134.5q0 123 19.5 251t75 232.5t153.5 172t256 67.5q133 0 215 -11.5t145 -27.5q25 -6 28 -17 q1 -5 1 -13q0 -9 -2 -23q-53 -279 -87 -456t-54.5 -281.5t-29.5 -149.5t-11 -59.5t-2 -10.5t0 -2q-18 -98 -48 -164.5t-79.5 -106.5t-120 -57.5t-172.5 -17.5q-37 0 -78 2t-83 6t-82 11.5t-71 19.5q-7 4 -7 12q0 3 1 6zM164 309q0 -135 48 -198.5t169 -63.5q78 0 167 15.5 t200 46.5l157 813q-63 12 -146 21t-175 9q-129 0 -211 -61.5t-128 -155.5t-63.5 -208t-17.5 -218z" />
<glyph unicode="h" horiz-adv-x="960" d="M25 12l274 1413q2 12 10 13h53q10 0 9 -13l-109 -551q35 18 85 43t108.5 46.5t121 37t121.5 15.5q104 0 154 -30t66 -81q9 -30 10 -67q0 -26 -4 -52q-10 -68 -25 -141l-121 -633q-2 -12 -12 -12h-57q-6 0 -4 12l124 641q13 63 19 119q2 18 2 34q0 34 -10 61 q-14 40 -52 63.5t-116 23.5q-45 0 -105.5 -16t-121 -37.5t-112.5 -45.5t-83 -38l-156 -805q-2 -12 -12 -12h-53q-5 0 -5 7q0 2 1 5z" />
<glyph unicode="i" horiz-adv-x="403" d="M86 12l188 973q2 12 15 12h51q8 0 6 -12l-188 -973q-2 -12 -15 -12h-47q-12 0 -10 12zM313 1243q0 33 13.5 53.5t48.5 20.5q16 0 29.5 -6t13.5 -27q0 -31 -14.5 -52.5t-49.5 -21.5q-16 0 -28.5 7.5t-12.5 25.5z" />
<glyph unicode="j" horiz-adv-x="425" d="M-266 -338l8 19q2 10 18 8q33 -4 72 -4h66q49 0 79.5 11t51 31.5t32 49t17.5 63.5l223 1147q2 12 12 12h49q10 0 9 -12l-226 -1167q-18 -92 -70 -145.5t-157 -53.5q-66 0 -105.5 6t-70.5 17q-9 3 -9 12q0 2 1 6zM338 1243q0 33 13.5 53.5t47.5 20.5q16 0 29.5 -6 t13.5 -27q0 -31 -14 -52.5t-49 -21.5q-16 0 -28.5 7.5t-12.5 25.5z" />
<glyph unicode="k" horiz-adv-x="835" d="M43 12l274 1413q2 12 15 13h51q6 0 6 -13l-199 -1030l619 592q12 12 31 12h53q14 0 14 -6q0 -5 -10 -14l-428 -408l264 -557q6 -14 -8 -14h-51q-18 0 -25 18l-235 500l-248 -237l-51 -269q-2 -12 -15 -12h-47q-12 0 -10 12z" />
<glyph unicode="l" horiz-adv-x="413" d="M90 102l258 1323q2 12 14 13h52q6 0 6 -13l-252 -1306q-10 -45 11.5 -54.5t84.5 -9.5q12 0 12 -8v-33q0 -14 -20 -20q-14 -4 -31.5 -6t-31.5 -2q-77 0 -95 32q-12 20 -12 49q0 16 4 35z" />
<glyph unicode="m" horiz-adv-x="1587" d="M35 12l188 973q2 12 10 12h54q10 0 8 -12l-23 -111q35 18 85.5 43t108.5 46.5t121 37t122 15.5q98 0 139 -43t47 -111q111 59 225.5 106.5t231.5 47.5q96 0 137 -41t49 -105q3 -23 3 -48q0 -44 -9 -94q-14 -79 -29 -153l-108 -563q-2 -12 -13 -12h-55q-6 0 -4 12l111 572 q12 62 23 128q8 45 8 85q0 17 -2 35q-5 54 -35.5 88t-102.5 34q-45 0 -105.5 -16t-120 -38.5t-111.5 -46.5t-83 -36l-8 -4q-2 -55 -14.5 -116.5t-22.5 -121.5l-108 -563q-2 -12 -13 -12h-57q-6 0 -4 12l113 572q12 62 23 128q8 45 8 85q0 17 -2 35q-5 54 -35.5 88t-102.5 34 q-45 0 -105.5 -16t-121 -37.5t-112.5 -45.5t-83 -38l-156 -805q-2 -12 -12 -12h-53q-5 0 -5 7q0 2 1 5z" />
<glyph unicode="n" horiz-adv-x="960" d="M25 12l188 973q2 12 14 12h45q14 0 13 -12l-23 -111q35 18 85 43t108.5 46.5t121 37t121.5 15.5q104 0 154 -30t66 -81q9 -30 10 -67q0 -26 -4 -52q-10 -68 -25 -141l-121 -633q-2 -12 -14 -12h-51q-10 0 -8 12l124 641q11 69 19 125q3 20 3 38q-1 32 -9 56 q-14 38 -53 60t-117 22q-45 0 -105.5 -16t-121 -37.5t-112.5 -45.5t-83 -38l-156 -805q-2 -12 -16 -12h-45q-10 0 -8 12z" />
<glyph unicode="o" horiz-adv-x="976" d="M84 291q0 57 8 113.5t19 113.5q20 102 54 193.5t91 159t140 107.5t202 40q160 0 243 -76t83 -237q0 -47 -5.5 -93.5t-15.5 -93.5q-23 -115 -53.5 -212t-86.5 -168.5t-144.5 -112.5t-221.5 -41q-160 0 -236.5 74.5t-76.5 232.5zM160 299q0 -129 59.5 -190.5t190.5 -61.5 q106 0 177.5 37t118 99.5t73 144.5t44.5 174q10 49 17.5 100t7.5 103q0 135 -66.5 190t-197.5 55q-104 0 -173 -38t-114 -100t-70.5 -143t-42.5 -167q-10 -51 -17 -101.5t-7 -101.5z" />
<glyph unicode="p" horiz-adv-x="980" d="M-25 -348l263 1335q2 12 8 12h53q10 0 8 -12l-20 -108q39 20 89 44.5t107.5 45t118 35t119.5 14.5q123 0 177 -61.5t54 -192.5q0 -53 -8 -118.5t-21.5 -133.5t-32 -132.5t-36.5 -113.5q-57 -141 -151.5 -212.5t-253.5 -71.5q-59 0 -145.5 15t-176.5 56l-4 -2l-78 -399 q-2 -12 -12 -12h-53q-6 0 -5 12zM135 104q96 -31 178 -45t160 -14q111 0 183.5 54.5t123.5 174.5q18 43 34.5 101.5t30 121t21.5 124t8 108.5q0 119 -44 171t-136 52q-45 0 -105.5 -16t-120.5 -37.5t-112.5 -46.5t-83.5 -39z" />
<glyph unicode="q" horiz-adv-x="980" d="M86 293q0 123 19.5 251t75 232.5t153.5 172t256 67.5q133 0 215 -11.5t145 -27.5q25 -6 28 -19q1 -5 1 -12q0 -9 -2 -22l-248 -1270q-2 -14 -12 -14h-47q-12 0 -11 14l78 389l-6 2q-117 -45 -204 -54t-146 -9q-86 0 -142.5 19t-90 59t-48 97.5t-14.5 135.5zM164 307 q0 -135 48 -198.5t169 -63.5q78 0 167 14.5t200 44.5l157 814q-63 12 -146 22t-175 10q-129 0 -211 -61.5t-128 -155.5t-63.5 -208t-17.5 -218z" />
<glyph unicode="r" horiz-adv-x="544" d="M90 12l189 975q2 12 14 12h47q12 0 10 -12l-24 -121q18 10 52 31t76 43.5t88 43t87 30.5q3 1 5 1q11 0 11 -16l2 -41q2 -20 -16 -26q-35 -10 -81 -25.5t-92 -33t-85 -34t-58 -24.5l-155 -803q-2 -12 -15 -12h-47q-10 0 -8 12z" />
<glyph unicode="s" horiz-adv-x="827" d="M10 39l6 20q4 12 21 11q27 -4 65.5 -7.5t79.5 -7.5t79 -6t63 -2q68 0 126 11.5t101 41t66.5 78.5t23.5 123q0 45 -16.5 77t-46 52.5t-67.5 32.5t-81 20q-63 10 -116.5 22.5t-91.5 37t-59.5 63.5t-21.5 101q0 84 31 143t83 96t119.5 54.5t141.5 17.5q27 0 66 -2t79.5 -7 t79.5 -13.5t68 -18.5q8 -3 8 -9q0 -3 -2 -7l-8 -21q-6 -10 -16 -10q-27 2 -62 6t-71.5 8t-73.5 6t-70 2q-63 0 -117.5 -14t-94.5 -44t-62.5 -78t-22.5 -116q0 -39 15.5 -63.5t44 -40.5t70.5 -26.5t95 -18.5q57 -10 107.5 -24.5t87.5 -41t58.5 -70.5t21.5 -114 q0 -88 -31 -148.5t-83 -97.5t-122.5 -53t-150.5 -16q-27 0 -69 2t-87 6t-88 11t-70 18q-7 3 -7 10q0 3 1 6z" />
<glyph unicode="t" horiz-adv-x="571" d="M158 172l149 770h-129q-10 0 -10 10l8 35q0 12 17 12h126l46 234l3 9t9 7l41 15q13 5 18 5q2 0 3 -1q1 -4 -3 -19l-47 -250h223q8 0 8.5 -2t0.5 -8l-9 -37q0 -10 -12 -10h-223l-146 -747q-6 -39 -9 -67t6.5 -46.5t33 -26.5t68.5 -8q29 0 75 2t70 6q14 2 14 -10v-22 q0 -10 -3 -12.5t-9 -6.5q-23 -6 -75 -13t-117 -7q-96 0 -121 44q-14 25 -14 68q0 33 8 76z" />
<glyph unicode="u" horiz-adv-x="985" d="M80 213q10 68 24 141l123 633q0 12 13 12h51q10 0 8 -12l-125 -641q-12 -62 -18 -118q-2 -18 -2 -34q0 -35 9 -62q13 -40 52 -63.5t119 -23.5q45 0 105.5 16.5t119.5 38t111.5 45t83.5 37.5l155 805q2 12 17 12h45q10 0 8 -12l-188 -975q-2 -10 -13 -10h-47q-14 0 -12 10 l22 113q-35 -18 -85 -43t-108.5 -46.5t-121 -36.5t-121.5 -15q-104 0 -154.5 29.5t-65.5 80.5q-9 31 -9 67q0 25 4 52z" />
<glyph unicode="v" horiz-adv-x="894" d="M160 987q0 10 10 10h43q14 0 16 -14l152 -901h2l496 903q4 6 9 10t15 4h49q11 0 11 -4q0 -3 -5 -10l-540 -973q-6 -12 -19 -12h-57q-14 0 -18 14z" />
<glyph unicode="w" horiz-adv-x="1355" d="M156 987q0 10 10 10h45q14 0 16 -14l111 -903h2l383 760l-18 147q0 10 10 10h45q14 0 16 -14l111 -903h2l454 905q6 14 25 14h47q10 0 10 -3t-4 -11l-499 -973q-6 -12 -19 -12h-57q-14 0 -19 14l-90 709l-364 -711q-6 -12 -19 -12h-57q-14 0 -18 14z" />
<glyph unicode="x" horiz-adv-x="829" d="M-33 14l424 494l-217 473q-4 4 -2 10t14 6h43q12 0 17 -12l194 -424l361 424q8 12 22 12h58q8 0 8 -4q0 -6 -6 -12l-400 -473l238 -492q2 -6 1 -11t-13 -5h-50q-16 0 -20 10l-205 445l-377 -445q-10 -10 -26 -10h-62q-9 0 -9 4q0 3 7 10z" />
<glyph unicode="y" horiz-adv-x="901" d="M155 -358q0 2 3 10l180 344l-174 991q0 10 10 10h45q14 0 17 -14l157 -897h2l482 899q4 6 9 10t15 4h47q10 0 10 -3t-4 -11l-718 -1335q-6 -10 -19 -10h-51q-11 0 -11 2z" />
<glyph unicode="z" horiz-adv-x="833" d="M-14 14l8 37q4 18 16 31l772 858l-567 2q-14 0 -14 10l8 35q2 14 16 14l635 -2q8 0 11 -1q2 -1 2 -4t-1 -7l-8 -37q-4 -18 -16 -30l-770 -861h602q12 0 8 -10l-6 -35q-4 -14 -14 -14h-670q-14 0 -12 14z" />
<glyph unicode="{" horiz-adv-x="475" d="M74 -133q2 31 8 67l82 418q6 37 10 75t-2 69.5t-23.5 56.5t-52.5 35q-8 4 -12 4t-2 10l4 21q2 8 6 9t14 5q41 12 69 36.5t45.5 57.5t27.5 70t18 73l76 396q6 37 16.5 67.5t30 54t50 36t77.5 12.5q18 0 38.5 -2t33.5 -6q12 -4 16 -5.5t2 -11.5l-2 -12q-2 -10 -5 -11 t-13 -1l-66 2q-35 0 -54.5 -11.5t-30.5 -30t-16 -40t-7 -39.5l-80 -406q-6 -37 -19.5 -76.5t-33 -73.5t-47 -61.5t-64.5 -40.5v-2q63 -47 72.5 -105t-7.5 -147l-81 -428q-4 -23 -7.5 -42t2 -34.5t20.5 -24.5t48 -11l64 -4q16 0 14 -13l-4 -14q-4 -10 -8.5 -13t-18.5 -5 q-12 -2 -26.5 -3t-45.5 -1q-47 0 -72.5 12t-35.5 34.5t-8 53.5z" />
<glyph unicode="|" horiz-adv-x="432" d="M178 -225l2 1638q0 12 15 12h38q16 0 17 -12v-1638q0 -12 -14 -13h-39q-8 0 -13.5 1t-5.5 12z" />
<glyph unicode="}" horiz-adv-x="475" d="M-68 -209l2 12q2 12 19 13l63 2q33 0 53.5 11t32 28.5t16.5 37t9 37.5l84 428q8 45 19.5 81t30 67t45 56.5t67.5 47.5v2q-31 12 -48.5 40t-23.5 62t-3 73.5t9 76.5l80 406q2 18 5 37.5t-2 35t-20.5 26.5t-47.5 13l-62 5q-16 0 -14 14l2 12q2 10 9 13.5t17 5.5t25.5 4 t46.5 2q47 0 72.5 -12.5t36 -36t8.5 -54t-8 -67.5l-76 -396q-8 -37 -12.5 -73.5t0 -69.5t23 -57.5t54.5 -36.5q10 -4 14.5 -5t2.5 -9l-4 -21q-2 -10 -7.5 -10t-15.5 -4q-39 -10 -65.5 -35t-45 -56.5t-29.5 -69.5t-18 -75l-81 -418q-6 -37 -16.5 -67.5t-30 -53t-50 -34.5 t-78.5 -12q-29 0 -42 1t-27 3q-20 2 -19 20z" />
<glyph unicode="~" horiz-adv-x="925" d="M41 575.5q4 10.5 12 20.5q61 72 118.5 105.5t123.5 33.5q49 0 97 -23.5t95.5 -51t92.5 -50t88 -22.5q53 0 91 31.5t79 72.5q10 10 17 17.5t17 -0.5l19 -13q10 -8 8 -15t-6 -11q-106 -147 -242 -148q-51 0 -100 22.5t-95 50.5t-90 50.5t-87 22.5q-53 0 -95.5 -30 t-81.5 -71q-16 -18 -21 -23t-15 1l-19 12q-10 8 -6 18.5z" />
<glyph unicode="&#xa2;" d="M186 268q-2 53 6.5 112.5t20.5 125.5q18 100 47 191t78 160t125 111t190 48l41 209q0 10 15 10h41q12 0 12 -10l-41 -207q57 -4 131 -13.5t123 -27.5q12 -4 6 -16l-8 -21q-4 -6 -5 -8t-12 -2q-27 2 -61.5 6t-72.5 8t-74.5 6t-69.5 2q-86 0 -148.5 -23.5t-108.5 -76.5 t-78 -138t-54 -206q-12 -66 -19.5 -119t-7.5 -96q0 -131 56.5 -187.5t185.5 -56.5q31 0 68.5 2t76.5 5t74 6.5t63 7.5q16 0 17 -11l-2 -20q0 -14 -13 -16q-53 -16 -129.5 -26.5t-138.5 -12.5l-45 -226q-2 -10 -14 -10h-41q-16 0 -14 10l45 224q-147 6 -206 79.5t-59 206.5z " />
<glyph unicode="&#xa3;" horiz-adv-x="1005" d="M20 14l7 31q2 14 22 25q61 27 96 70.5t56.5 97t33 109.5t23.5 106l35 182h-121q-10 0 -8 14l8 35q0 10 12 10h121l68 344q29 152 127 244t280 92q33 0 75 -2t86 -7t84 -13.5t71 -20.5q12 -2 8 -18l-8 -23q-4 -6 -6.5 -9t-12.5 -1q-59 4 -144 12t-165 8q-131 0 -214 -69.5 t-108 -200.5l-65 -336h442q12 0 8 -10l-6 -35q-2 -14 -14 -14h-442l-35 -182q-10 -55 -24.5 -113.5t-36 -111t-52.5 -94.5t-74 -66h695q12 0 12 -11l-10 -47q0 -10 -15 -10h-796q-14 0 -13 14z" />
<glyph unicode="&#xa5;" horiz-adv-x="985" d="M82 365l8 43q2 12 12 12h795q12 0 10 -12l-8 -46q-2 -8 -14 -8h-371l-65 -340q-2 -14 -15 -14h-49q-12 0 -10 14l65 340h-350q-10 0 -8 11zM121 567l8 45q2 12 12 13h336l-248 721q-2 10 15 10h53q10 0 12 -10l230 -684l495 684q6 8 10.5 9t8.5 1h53q16 0 8 -10 l-534 -721h356q12 0 10 -13l-8 -47q-2 -8 -14 -8h-795q-12 0 -8 10z" />
<glyph unicode="&#xa8;" horiz-adv-x="972" d="M436 1239q0 29 13.5 49.5t48.5 20.5q16 0 27.5 -6.5t11.5 -24.5q0 -31 -13.5 -51.5t-46.5 -20.5q-16 0 -28.5 6.5t-12.5 26.5zM795 1239q0 29 13 49.5t48 20.5q16 0 27.5 -6.5t11.5 -24.5q0 -31 -13 -51.5t-46 -20.5q-16 0 -28.5 6.5t-12.5 26.5z" />
<glyph unicode="&#xa9;" horiz-adv-x="1605" d="M86 686q0 150 56.5 281t152.5 227t226 152.5t278 56.5q154 0 283.5 -56.5t226 -152.5t150.5 -227t54 -281t-56 -281t-152.5 -227t-227.5 -152.5t-278 -56.5q-152 0 -283 56.5t-226 152.5t-149.5 227.5t-54.5 280.5zM145 686q0 -137 51.5 -258t140.5 -211t208 -142 t254 -52t255 52t209 142t140 211t51 258t-51 258t-140 211t-209 142.5t-255 52.5t-254 -52.5t-208 -142.5t-140.5 -211t-51.5 -258zM508 655q0 82 13.5 158t48 133.5t93 91t148.5 33.5q41 0 97.5 -6t92.5 -18q8 -4 9.5 -8.5t1.5 -12.5l-2 -16q0 -14 -19 -11q-6 0 -12 1 t-14 1q-35 4 -76 7.5t-78 3.5q-82 0 -130 -35t-73.5 -87t-33 -114.5t-7.5 -120.5q0 -59 9.5 -119.5t36 -109.5t73.5 -80t121 -31q41 0 95 3.5t89 7.5q6 0 13.5 -3.5t7.5 -9.5v-18q0 -14 -11 -14q-18 -6 -47.5 -11.5t-59.5 -8.5t-55.5 -4t-37.5 -1q-82 0 -138.5 31.5t-90 86 t-49 127t-15.5 154.5z" />
<glyph unicode="&#xab;" horiz-adv-x="710" d="M76 340q-10 20 6 33l256 256q8 8 15 13t26 5h47q6 0 6 -5t-4 -9l-287 -281l162 -272q8 -16 -8 -17h-35q-18 0 -21 4.5t-10 12.5zM317 340q-10 20 7 33l256 256q8 8 15 13t26 5h47q6 0 6 -5t-4 -9l-287 -281l162 -272q8 -16 -8 -17h-35q-18 0 -21.5 4.5t-9.5 12.5z" />
<glyph unicode="&#xad;" horiz-adv-x="704" d="M119 633l12 55q2 12 14 12h541q10 0 10 -12l-12 -57q-2 -8 -12 -8h-543q-10 0 -10 10z" />
<glyph unicode="&#xae;" horiz-adv-x="1042" d="M78 1036q0 94 34.5 176t94 142.5t140.5 95.5t173 35q94 0 175 -35t140.5 -95.5t93.5 -142.5t34 -176t-35 -176t-95.5 -143.5t-140.5 -96t-172 -34.5t-173 34.5t-140.5 96t-94 143.5t-34.5 176zM121 1036q0 -84 31.5 -158.5t85 -130t126 -87t156.5 -31.5q82 0 155 31.5 t126 87t85 130t32 158.5t-32 158t-85 129t-126 87t-155 32q-84 0 -156.5 -32t-126 -87t-85 -129t-31.5 -158zM379 760v540q0 10 14 11h158q66 0 114 -36t48 -122q0 -47 -23.5 -92t-81.5 -62l111 -233q8 -16 -4 -16h-29q-14 0 -18 10l-105 231h-137v-231q0 -10 -12 -10h-23 q-12 0 -12 10zM426 1034h125q12 0 31.5 3t38 15.5t33 36t14.5 64.5q0 66 -36 89.5t-91 23.5h-115v-232z" />
<glyph unicode="&#xb4;" horiz-adv-x="966" d="M580 1155q-2 4 6 14l184 261q10 16 23 8l51 -29q10 -4 0 -14l-217 -250q-4 -4 -9.5 -8t-9.5 0l-20 10q-6 4 -8 8z" />
<glyph unicode="&#xb8;" horiz-adv-x="802" d="M143 -344l9 18q8 10 20 9q63 -12 115 -13q51 0 90 22.5t39 76.5q0 35 -34 54t-75 25q-20 4 -12 19l76 151h51l-64 -129q59 -8 97.5 -38.5t38.5 -81.5q0 -43 -18.5 -73t-48.5 -48.5t-69 -25.5t-77 -7q-23 0 -61 6t-68 17q-16 6 -9 18z" />
<glyph unicode="&#xbb;" horiz-adv-x="710" d="M20.5 66.5q-0.5 5.5 4.5 9.5l280 282l-166 271q-8 16 8 16h37q18 0 21.5 -4t9.5 -12l158 -260q10 -20 -6 -33l-254 -256q-8 -8 -15.5 -13.5t-25.5 -5.5h-45q-6 0 -6.5 5.5zM258 66.5q0 5.5 4 9.5l281 282l-166 271q-8 16 8 16h37q18 0 21 -4t10 -12l157 -260 q10 -20 -6 -33l-254 -256q-8 -8 -15 -13.5t-26 -5.5h-45q-6 0 -6 5.5z" />
<glyph unicode="&#x2c6;" horiz-adv-x="976" d="M360.5 1158q-0.5 3 10.5 13l233 234q8 8 14.5 11t18.5 3h86q14 0 19.5 -3t9.5 -11l143 -236q8 -12 -2 -18l-27 -21q-8 -4 -14 3l-176 219l-279 -219q-10 -6 -18 2l-14 16q-4 4 -4.5 7z" />
<glyph unicode="&#x2da;" horiz-adv-x="980" d="M489 1237q0 47 19.5 88t52.5 70.5t73 46t81 16.5q72 0 112.5 -43t40.5 -104q0 -43 -18.5 -82t-50 -70t-72.5 -49t-84 -18q-66 0 -110 39.5t-44 105.5zM551 1243q0 -43 27.5 -70.5t74.5 -27.5q29 0 57.5 12t50 32.5t35 49.5t13.5 61q0 45 -27.5 76t-76.5 31 q-31 0 -60 -14.5t-49.5 -37t-32.5 -52t-12 -60.5z" />
<glyph unicode="&#x2dc;" horiz-adv-x="976" d="M353 1212.5q3 10.5 12 20.5q47 59 91 86t93 27q35 0 70.5 -17.5t69.5 -38t65.5 -38t58.5 -17.5q37 0 65.5 23.5t55.5 58.5q8 10 13 13t16 -3l18 -10q6 -4 7 -9t-9 -18q-41 -55 -85 -85.5t-95 -30.5q-41 0 -75 17t-66.5 36.5t-62.5 37t-60 17.5q-31 0 -63 -22.5t-60 -55.5 q-14 -16 -20.5 -19t-14.5 1l-17 10q-10 6 -7 16.5z" />
<glyph unicode="&#x401;" horiz-adv-x="964" d="M61 10l258 1333q4 14 15 15h704q14 0 11 -12l-9 -46q-4 -12 -14 -12h-641l-106 -549h577q12 0 8 -10l-8 -41q0 -14 -14 -14h-576l-119 -606h654q14 0 12 -11l-10 -47q-2 -10 -15 -10h-718q-12 0 -9 10zM504 1522q0 31 13 51t46 20q16 0 28.5 -6t12.5 -26q0 -29 -14 -49.5 t-47 -20.5q-16 0 -27.5 6t-11.5 25zM834 1522q0 31 13 51t46 20q16 0 28.5 -6t12.5 -26q0 -29 -14.5 -49.5t-47.5 -20.5q-16 0 -27 6t-11 25z" />
<glyph unicode="&#x402;" horiz-adv-x="1425" d="M199 1300l8 46q0 12 14 12h1088q8 0 8 -4v-8l-8 -46q-2 -10 -13 -10h-628l-88 -446q41 18 89 37.5t103 36t115.5 27.5t126.5 11q90 0 152.5 -27.5t101.5 -74.5t56 -109.5t17 -132.5q0 -113 -28.5 -233.5t-92 -230t-166 -199.5t-249.5 -142q-2 0 -9.5 -2t-11.5 9l-8 20 q-8 18 15 29q221 98 346 287.5t125 445.5q-4 154 -74 220.5t-209 66.5q-47 0 -100.5 -10.5t-108.5 -27t-108.5 -37t-98.5 -40.5l-147 -756q-2 -12 -13 -12h-49q-14 0 -12 12l250 1278h-383q-12 0 -10 10z" />
<glyph unicode="&#x403;" horiz-adv-x="917" d="M68 14l258 1329q4 14 14 15h694q14 0 10 -12l-8 -46q-4 -12 -14 -12h-631l-246 -1274q-2 -14 -14 -14h-53q-12 0 -10 14zM588 1486q0 3 10 9l299 182q10 4 12 4t6 -8l29 -53q6 -10 -6 -16l-322 -156q-10 -4 -14 4l-12 27q-2 4 -2 7z" />
<glyph unicode="&#x404;" horiz-adv-x="1046" d="M139 389q0 20 2 52t5.5 69t9.5 77t12 77q25 141 70 269t120.5 225t185 155.5t265.5 58.5q33 0 80 -2t94 -6t91 -12.5t75 -20.5q12 -2 8 -18l-8 -23l-6 -9t-13 -1q-31 2 -68.5 5t-79.5 6t-86 5t-83 2q-135 0 -229.5 -48t-158 -127t-101 -179t-60.5 -205h572q12 0 8 -10 l-8 -41q0 -14 -15 -14h-571q-16 -70 -22.5 -146.5t-6.5 -126.5q0 -74 17.5 -137t58.5 -109t107.5 -72t162.5 -26q35 0 79 1t88 4.5t87 5.5t74 6q16 0 16 -13l-2 -22q0 -12 -14 -19q-35 -12 -86 -19t-104.5 -11t-98.5 -6t-67 -2q-113 0 -190 29.5t-123 84t-66.5 129 t-20.5 164.5z" />
<glyph unicode="&#x405;" horiz-adv-x="1024" d="M27 53l8 23q6 12 20 10q45 -6 96.5 -11t100.5 -9.5t93 -6.5t77 -2q86 0 163 20.5t135 62.5t93 108t35 158q0 63 -22.5 108t-61.5 74.5t-89 46t-106 27.5q-84 14 -150.5 32.5t-113.5 51t-72.5 83t-25.5 127.5q0 104 40 182.5t106.5 129.5t155.5 76.5t187 25.5 q90 0 182.5 -7t165.5 -36q14 -4 7 -18l-7 -23q-4 -6 -7 -9t-13 -1q-18 2 -57 6t-87.5 8t-97.5 6t-90 2q-80 0 -153.5 -21.5t-129 -64.5t-88 -107.5t-32.5 -150.5q0 -55 23.5 -91t63.5 -59.5t92 -37.5t112 -25q70 -12 133 -31.5t112 -56.5t78 -94t29 -147q0 -117 -42 -199 t-113.5 -133t-166 -74.5t-200.5 -23.5q-33 0 -86.5 4t-108.5 11t-105.5 16.5t-76.5 19.5q-12 6 -6 20z" />
<glyph unicode="&#x406;" horiz-adv-x="458" d="M111 12l260 1334q2 12 12 12h53q10 0 8 -12l-258 -1334q-2 -12 -14 -12h-53q-10 0 -8 12z" />
<glyph unicode="&#x407;" horiz-adv-x="458" d="M111 12l260 1334q2 12 12 12h53q10 0 8 -12l-258 -1334q-2 -12 -14 -12h-53q-10 0 -8 12zM219 1522q0 31 13.5 51t46.5 20q16 0 28 -6t12 -26q0 -29 -14 -49.5t-47 -20.5q-16 0 -27.5 6t-11.5 25zM549 1522q0 31 13 51t46 20q16 0 28.5 -6t12.5 -26q0 -29 -14 -49.5 t-47 -20.5q-16 0 -27.5 6t-11.5 25z" />
<glyph unicode="&#x408;" horiz-adv-x="899" d="M-54 25.5q-3 3.5 1 11.5l8 22q6 14 22 13q78 -10 135.5 -12.5t82.5 -2.5q90 0 150.5 22.5t98 63.5t60 98.5t35.5 127.5l190 977q2 12 12 12h56q8 0 8 -12l-197 -1012q-16 -78 -43.5 -142.5t-75 -111.5t-117 -73.5t-167.5 -26.5q-20 0 -52 2t-68 6t-70.5 12t-61.5 18 q-4 4 -7 7.5z" />
<glyph unicode="&#x409;" horiz-adv-x="1785" d="M-18 10v25q2 12 6 14t20 4q74 8 124 36t85 76t61.5 119.5t51.5 170.5l225 891q2 12 12 12h586q12 0 10 -15l-110 -569h327q84 0 148.5 -25.5t107.5 -68.5t65.5 -98.5t22.5 -116.5q0 -102 -31.5 -187t-90 -146.5t-142.5 -96.5t-188 -35h-428q-14 0 -13 20l246 1270h-459 l-233 -909q-23 -90 -53.5 -160.5t-74.5 -122t-104.5 -81t-142.5 -33.5q-23 -2 -25.5 4t-2.5 22zM915 68h326q106 0 184 29.5t127.5 82.5t73 127t23.5 162q0 74 -31 120t-75 72.5t-92 37t-85 10.5h-326z" />
<glyph unicode="&#x40a;" horiz-adv-x="1615" d="M68 12l258 1334q2 12 12 12h53q10 0 8 -12l-110 -572h516l110 569q2 14 17 15h49q10 0 10 -15l-110 -569h327q84 0 148.5 -25.5t107.5 -68.5t65.5 -98.5t22.5 -116.5q0 -102 -31.5 -187t-90 -146.5t-142.5 -96.5t-188 -35h-428q-14 0 -13 20l134 689h-517l-135 -697 q-2 -12 -12 -12h-53q-10 0 -8 12zM743 68h326q106 0 184 29.5t127.5 82.5t73 127t23.5 162q0 74 -31 120t-75 72.5t-92 37t-85 10.5h-326z" />
<glyph unicode="&#x40b;" horiz-adv-x="1400" d="M195 1300l10 46q0 12 14 12h1079q10 0 7 -15l-9 -45q-2 -10 -12 -10l-620 2l-89 -454q39 16 96.5 36.5t122 39t131.5 30.5t126 12q100 0 160.5 -31.5t91 -85t33.5 -123t-11 -143.5l-108 -559q-2 -12 -13 -12h-55q-8 0 -6 12l110 568q27 139 -24 220t-197 81 q-47 0 -111.5 -12.5t-130 -31t-127 -39t-104.5 -38.5l-145 -748q-2 -12 -15 -12h-47q-14 0 -12 12l248 1278h-383q-10 0 -10 10z" />
<glyph unicode="&#x40c;" horiz-adv-x="1073" d="M61 16l258 1327q2 14 15 15h47q14 0 12 -15l-119 -606h314q29 0 64.5 6.5t72.5 27t74 57t67 96.5l215 411q10 23 29 23h37q25 0 10 -23l-215 -417q-47 -88 -95 -139.5t-114 -65.5q76 -16 105.5 -65.5t44.5 -158.5l49 -464q0 -25 -17 -25h-32q-10 0 -14.5 2t-8.5 14 l-49 467q-6 59 -22.5 96t-43 56.5t-63.5 27t-86 7.5h-334l-127 -654q-2 -16 -16 -16h-47q-12 0 -11 16zM567 1486q0 3 11 9l299 182q10 4 12 4t6 -8l29 -53q6 -10 -6 -16l-322 -156q-10 -4 -14 4l-13 27q-2 4 -2 7z" />
<glyph unicode="&#x40e;" horiz-adv-x="993" d="M79 20.5q-3 2.5 1 12.5l10 28q4 10 9 11.5t16 -0.5q35 -8 61.5 -10.5t40.5 -0.5q43 4 76 21.5t62.5 48.5t58 78t63.5 108l-235 1031q-2 10 14 10h55q10 0 13 -10l206 -942l508 942q4 8 9.5 9t9.5 1h59q14 0 10 -10l-565 -1035q-49 -88 -88 -147.5t-77 -96t-83 -54 t-106 -21.5q-68 -4 -121 20q-4 4 -7 6.5zM446 1618q-4 10 5 18l24 17q8 4 13.5 1t9.5 -7q35 -51 76.5 -90t117.5 -39q72 0 127 36.5t123 96.5q10 10 19 2l20 -21q6 -6 -2 -18q-66 -86 -143.5 -124t-153.5 -38t-136.5 44t-99.5 122z" />
<glyph unicode="&#x40f;" horiz-adv-x="1167" d="M86 12l258 1334q2 12 12 12h54q10 0 8 -12l-248 -1278h727l248 1278q2 12 16 12h49q10 0 9 -12l-258 -1334q-2 -12 -13 -12h-377l-67 -283q-6 -23 -12.5 -29.5t-14.5 -6.5h-31q-10 0 -12 7t2 29l43 283h-385q-10 0 -8 12z" />
<glyph unicode="&#x410;" horiz-adv-x="1069" d="M-43 2q-2 2 2 10l703 1331q6 10 10 11.5t10 1.5h63q12 0 13 -15l190 -1329q0 -8 -1 -10t-11 -2h-51q-4 0 -8.5 1t-6.5 11l-47 371h-592l-188 -371q-4 -10 -8 -11t-10 -1h-56q-10 0 -12 2zM268 451h545l-113 819h-4z" />
<glyph unicode="&#x411;" horiz-adv-x="1005" d="M51 20l256 1313q2 10 9.5 17.5t29.5 7.5h604q12 0 8 -12l-8 -43q-2 -6 -3 -9.5t-9 -3.5h-563l-101 -516h326q84 0 148.5 -25.5t107.5 -68.5t65.5 -98.5t22.5 -116.5q0 -102 -31.5 -187t-90 -146.5t-142.5 -96.5t-188 -35h-429q-14 0 -12 20zM135 68h326q106 0 184 29.5 t127 82.5t72.5 127t23.5 162q0 74 -30.5 120t-74.5 72.5t-92 37t-85 10.5h-326z" />
<glyph unicode="&#x412;" horiz-adv-x="1075" d="M53 16l258 1325q0 14 17 15h417q172 0 248 -78t76 -209q0 -127 -71.5 -226.5t-198.5 -135.5v-2q59 -25 95 -61t56.5 -77t26.5 -83t6 -78q0 -86 -29.5 -160t-82 -128.5t-125 -86t-158.5 -31.5h-514q-16 0 -19.5 5t-1.5 11zM141 68h389q82 0 151 21.5t118 64.5t76.5 106.5 t27.5 147.5q0 51 -18.5 99t-53 85t-85 59.5t-113.5 22.5h-375zM270 739h348q74 0 141.5 23.5t118 66.5t81 103.5t30.5 136.5q0 100 -65.5 159.5t-202.5 59.5h-344z" />
<glyph unicode="&#x413;" horiz-adv-x="917" d="M68 14l258 1329q4 14 14 15h694q14 0 10 -12l-8 -46q-4 -12 -14 -12h-631l-246 -1274q-2 -14 -14 -14h-53q-12 0 -10 14z" />
<glyph unicode="&#x414;" horiz-adv-x="1236" d="M-103 -298q-3 7 1 30l45 282q4 23 9 31t19 12l60 11q94 72 160.5 199.5t109.5 287.5l209 778q2 8 8 16.5t19 8.5h720q10 0 9 -12l-248 -1278l59 -7q16 -4 20.5 -11t0.5 -25l-68 -293q-6 -23 -11 -30t-13 -7h-29q-10 0 -15.5 7t-0.5 30l40 268h-974l-64 -268 q-6 -23 -11 -30t-13 -7h-29q-10 0 -13 7zM131 68h813l238 1222h-609l-194 -719q-23 -78 -48.5 -152.5t-56 -141t-65.5 -121t-78 -88.5z" />
<glyph unicode="&#x415;" horiz-adv-x="964" d="M61 10l258 1333q4 14 15 15h704q14 0 11 -12l-9 -46q-4 -12 -14 -12h-641l-106 -549h577q12 0 8 -10l-8 -41q0 -14 -14 -14h-576l-119 -606h654q14 0 12 -11l-10 -47q-2 -10 -15 -10h-718q-12 0 -9 10z" />
<glyph unicode="&#x416;" horiz-adv-x="1695" d="M-6 25l229 464q29 53 53.5 92.5t52 66t58.5 42t72 23.5q-59 14 -87 65t-40 140l-56 417q-2 23 19 23h31q20 0 20 -23l55 -411q8 -59 31 -96t51.5 -57.5t61.5 -27t61 -6.5h254l119 606q2 14 14 15h47q14 0 13 -15l-119 -606h254q29 0 64.5 6.5t72.5 27t74 57t67 96.5 l215 411q10 23 29 23h39q25 0 10 -23l-215 -417q-47 -88 -95 -139.5t-114 -65.5q76 -16 105.5 -65.5t44.5 -158.5l49 -464q0 -25 -16 -25h-33q-10 0 -14.5 2t-8.5 14l-49 467q-6 59 -22.5 96t-43 56.5t-63.5 27t-86 7.5h-276l-127 -654q-2 -16 -17 -16h-47q-12 0 -10 16 l127 654h-260q-49 0 -89 -7.5t-74 -27t-64.5 -56t-61.5 -96.5l-229 -467q-6 -12 -11.5 -14t-15.5 -2h-41q-20 0 -8 25z" />
<glyph unicode="&#x417;" horiz-adv-x="1003" d="M-10 53l8 23q4 12 20 10q43 -8 91.5 -13t95.5 -9.5t88 -6.5t67 -2q94 0 179.5 20.5t149 64.5t100 111.5t36.5 160.5q2 80 -24.5 132t-72.5 81.5t-104.5 42t-119.5 12.5h-49q-14 0 -13 12l9 43q2 14 16 15h47q78 0 152.5 27.5t134 75.5t96.5 110.5t37 132.5 q0 72 -34 112.5t-85 62t-108.5 27t-104.5 5.5q-27 0 -66.5 -2.5t-84.5 -7.5t-89.5 -11t-76.5 -12q-12 -4 -14.5 -1t-4.5 11l-2 20q0 10 3 13.5t14 7.5q98 35 193 46t149 11q209 0 304 -69.5t95 -204.5t-92 -237.5t-248 -143.5v-4q104 -23 166.5 -98.5t62.5 -198.5 q0 -119 -47 -203t-126 -136t-180 -75.5t-210 -23.5q-35 0 -83 3t-97 9t-94 15t-78 24q-14 4 -6 18z" />
<glyph unicode="&#x418;" horiz-adv-x="1234" d="M66 14l256 1329q2 14 16 15h49q10 0 8 -15l-235 -1212h4l1020 1215q6 6 8 9t12 3h56q14 0 10 -15l-256 -1329q-2 -14 -17 -14h-49q-10 0 -8 14l236 1213h-5l-1019 -1215q-6 -8 -8.5 -10t-12.5 -2h-55q-14 0 -10 14z" />
<glyph unicode="&#x419;" horiz-adv-x="1234" d="M66 14l256 1329q2 14 16 15h49q10 0 8 -15l-235 -1212h4l1020 1215q6 6 8 9t12 3h56q14 0 10 -15l-256 -1329q-2 -14 -17 -14h-49q-10 0 -8 14l236 1213h-5l-1019 -1215q-6 -8 -8.5 -10t-12.5 -2h-55q-14 0 -10 14zM543 1618q-4 10 4 18l24 17q8 4 13.5 1t9.5 -7 q35 -51 76.5 -90t117.5 -39q72 0 127.5 36.5t122.5 96.5q10 10 19 2l20 -21q6 -6 -2 -18q-66 -86 -143.5 -124t-153.5 -38t-136 44t-99 122z" />
<glyph unicode="&#x41a;" horiz-adv-x="1073" d="M61 16l258 1327q2 14 15 15h47q14 0 12 -15l-119 -606h314q29 0 64.5 6.5t72.5 27t74 57t67 96.5l215 411q10 23 29 23h37q25 0 10 -23l-215 -417q-47 -88 -95 -139.5t-114 -65.5q76 -16 105.5 -65.5t44.5 -158.5l49 -464q0 -25 -17 -25h-32q-10 0 -14.5 2t-8.5 14 l-49 467q-6 59 -22.5 96t-43 56.5t-63.5 27t-86 7.5h-334l-127 -654q-2 -16 -16 -16h-47q-12 0 -11 16z" />
<glyph unicode="&#x41b;" horiz-adv-x="1173" d="M-72 10v25q2 12 6.5 14t20.5 4q74 8 124 36t85 76t61.5 119.5t50.5 170.5l226 891q2 12 12 12h684q10 0 8 -12l-258 -1334q-2 -12 -12 -12h-49q-14 0 -13 12l248 1278h-557l-233 -909q-23 -90 -53.5 -160.5t-74.5 -122t-104.5 -81t-142.5 -33.5q-23 -2 -26 4t-3 22z" />
<glyph unicode="&#x41c;" horiz-adv-x="1460" d="M70 14l260 1329q4 14 16 15h49q10 0 12.5 -2t6.5 -10l293 -1024h2l686 1019q8 10 10 13.5t18 3.5h54q16 0 12 -17l-256 -1327q-2 -14 -14 -14h-50q-14 0 -12 14l232 1188h-5l-649 -956q-8 -14 -18 -15h-45q-14 0 -19 13l-274 958h-4l-232 -1188q0 -14 -12 -14h-49 q-14 0 -12 14z" />
<glyph unicode="&#x41d;" horiz-adv-x="1167" d="M68 12l260 1334q2 12 12 12h53q10 0 8 -12l-114 -592h725l114 592q2 12 17 12h51q10 0 8 -12l-260 -1334q-2 -12 -12 -12h-49q-14 0 -13 12l131 676h-725l-131 -676q-2 -12 -14 -12h-53q-10 0 -8 12z" />
<glyph unicode="&#x41e;" horiz-adv-x="1261" d="M152 403q0 74 9 149t23 146q23 127 68 249t118.5 217.5t181 152.5t255.5 57q211 0 307 -104.5t96 -311.5q0 -66 -7 -130t-17 -130q-25 -141 -68 -270t-117.5 -228.5t-187 -158.5t-276.5 -59q-209 0 -297 112.5t-88 308.5zM223 410q0 -168 74 -264.5t252 -96.5 q137 0 233.5 54.5t161 143.5t102 201.5t60.5 229.5q14 66 22.5 133t8.5 137q0 176 -80 267.5t-262 91.5q-135 0 -228.5 -56.5t-156 -146.5t-99.5 -201.5t-57 -224.5q-14 -66 -22.5 -133.5t-8.5 -134.5z" />
<glyph unicode="&#x41f;" horiz-adv-x="1167" d="M68 12l260 1334q2 12 12 12h854q10 0 8 -12l-260 -1334q-2 -12 -12 -12h-49q-14 0 -13 12l248 1278h-725l-248 -1278q-2 -12 -14 -12h-53q-10 0 -8 12z" />
<glyph unicode="&#x420;" horiz-adv-x="987" d="M53 14l258 1332q4 12 17 12l379 -2q150 0 240.5 -73t90.5 -224q0 -102 -30.5 -188.5t-89 -149t-142.5 -98t-190 -35.5h-346l-113 -574q-2 -14 -14 -14h-50q-12 0 -10 14zM252 651h323q92 0 164 30t121 84t76 129t27 165q0 59 -21.5 103t-59.5 72t-90.5 41t-111.5 13h-305 z" />
<glyph unicode="&#x421;" horiz-adv-x="1046" d="M139 389q0 20 2 52t5.5 69t9.5 77t12 77q25 141 70 269t120.5 225t185 155.5t265.5 58.5q33 0 80 -2t94 -6t91 -12.5t75 -20.5q12 -2 8 -18l-8 -23l-6 -9t-13 -1q-31 2 -68.5 5t-79.5 6t-86 5t-83 2q-147 0 -246.5 -57t-163 -147t-99.5 -204t-56 -226 q-14 -70 -20.5 -142.5t-6.5 -120.5q0 -74 17.5 -137t58.5 -109t107.5 -72t162.5 -26q35 0 79 1t88 4.5t87 5.5t74 6q16 0 16 -13l-2 -22q0 -12 -14 -19q-35 -12 -86 -19t-104.5 -11t-98.5 -6t-67 -2q-113 0 -190 29.5t-123 84t-66.5 129t-20.5 164.5z" />
<glyph unicode="&#x422;" horiz-adv-x="931" d="M205 1300l10 46q0 12 12 12h846q12 0 8 -12l-8 -46q-2 -10 -14 -10h-383l-250 -1278q-2 -12 -14 -12h-50q-14 0 -12 12l248 1278h-383q-10 0 -10 10z" />
<glyph unicode="&#x423;" horiz-adv-x="993" d="M79 20.5q-3 2.5 1 12.5l10 28q4 10 9 11.5t16 -0.5q35 -8 61.5 -10.5t40.5 -0.5q43 4 76 21.5t62.5 48.5t58 78t63.5 108l-235 1031q-2 10 14 10h55q10 0 13 -10l206 -942l508 942q4 8 9.5 9t9.5 1h59q14 0 10 -10l-565 -1035q-49 -88 -88 -147.5t-77 -96t-83 -54 t-106 -21.5q-68 -4 -121 20q-4 4 -7 6.5z" />
<glyph unicode="&#x424;" horiz-adv-x="1409" d="M137 530q0 164 46 300.5t136.5 236.5t221.5 159.5t303 67.5l10 52q2 12 12 12h54q10 0 8 -12l-10 -52q123 -4 207.5 -35.5t139 -86t80 -131t25.5 -171.5q0 -166 -39 -309t-123 -249.5t-215 -170t-313 -71.5l-10 -58q-2 -12 -15 -12h-53q-10 0 -8 12l12 60q-133 4 -223 43 t-144.5 101.5t-78 144t-23.5 169.5zM209 526q0 -84 21.5 -153.5t69.5 -120.5t126 -82t192 -37l213 1098q-158 -8 -274.5 -65.5t-193 -151.5t-115.5 -219t-39 -269zM692 133q164 8 278.5 67.5t187.5 157t105.5 225.5t32.5 275q0 68 -17 133.5t-61 117.5t-120 85t-193 35z" />
<glyph unicode="&#x425;" horiz-adv-x="1015" d="M-23 12l541 690l-252 644q-4 6 2 9t11 3h57q10 0 12 -4l4 -8l230 -580l452 580q4 4 8.5 8t12.5 4h63q4 0 8 -3t0 -9l-503 -644l272 -690q4 -12 -12 -12h-62q-10 0 -14 12l-246 627l-491 -627q-10 -12 -21 -12h-63q-16 0 -9 12z" />
<glyph unicode="&#x426;" horiz-adv-x="1191" d="M86 12l258 1334q2 12 12 12h54q10 0 8 -12l-248 -1278h727l248 1278q2 12 16 12h49q10 0 9 -12l-248 -1274l61 -6q16 -2 20.5 -8.5t-1.5 -28.5l-72 -297q-4 -20 -11 -25.5t-18 -5.5h-20q-10 0 -15.5 4t-1.5 27l48 268h-867q-10 0 -8 12z" />
<glyph unicode="&#x427;" horiz-adv-x="987" d="M160 834.5q0 70.5 14 142.5l70 366q4 14 20 15h45q12 0 13 -12l-72 -369q-20 -104 -7 -166.5t49 -96.5t89 -45.5t113 -11.5q102 0 195 16.5t200 51.5l119 618q4 14 20 15h45q12 0 12 -12l-260 -1332q-2 -14 -16 -14h-49q-12 0 -10 14l124 643q-92 -31 -197.5 -51 t-215.5 -20q-113 0 -177.5 33.5t-94 89t-29.5 126z" />
<glyph unicode="&#x428;" horiz-adv-x="1728" d="M76 12l258 1334q2 12 12 12h53q10 0 9 -12l-248 -1278h596l248 1278q2 12 12 12h53q10 0 8 -12l-248 -1278h603l247 1278q2 12 17 12h49q10 0 8 -12l-258 -1334q-2 -12 -12 -12h-1399q-10 0 -8 12z" />
<glyph unicode="&#x429;" horiz-adv-x="1736" d="M86 12l258 1334q2 12 12 12h54q10 0 8 -12l-248 -1278h596l248 1278q2 12 12 12h53q10 0 8 -12l-247 -1278h602l248 1278q2 12 16 12h49q10 0 8 -12l-247 -1274l61 -6q16 -2 20.5 -8.5t-2.5 -28.5l-71 -297q-4 -20 -11.5 -25.5t-17.5 -5.5h-20q-10 0 -15.5 4t-1.5 27 l47 268h-1411q-10 0 -8 12z" />
<glyph unicode="&#x42a;" horiz-adv-x="1316" d="M174 1300l8 46q4 12 13 12h489q12 0 10 -15l-110 -569h327q84 0 148.5 -25.5t107.5 -68.5t65.5 -98.5t22.5 -116.5q0 -102 -31.5 -187t-90 -146.5t-142.5 -96.5t-188 -35h-428q-14 0 -13 20l246 1270h-426q-10 0 -8 10zM446 68h326q106 0 184 29.5t127.5 82.5t73 127 t23.5 162q0 74 -31 120t-75 72.5t-92 37t-85 10.5h-326z" />
<glyph unicode="&#x42b;" horiz-adv-x="1474" d="M68 20l258 1323q2 14 16 15h49q10 0 10 -15l-110 -569h325q84 0 148.5 -25.5t107.5 -68.5t66 -98.5t23 -116.5q0 -102 -32 -187t-90.5 -146.5t-142.5 -96.5t-188 -35h-428q-14 0 -12 20zM152 68h325q106 0 184 29.5t127.5 82.5t73 127t23.5 162q0 74 -31 120t-75 72.5 t-92 37t-85 10.5h-326zM1079 12l258 1334q2 12 13 12h53q10 0 8 -12l-258 -1334q-2 -12 -12 -12h-54q-10 0 -8 12z" />
<glyph unicode="&#x42c;" horiz-adv-x="1005" d="M51 20l258 1323q2 14 17 15h49q10 0 10 -15l-111 -569h326q84 0 148.5 -25.5t107.5 -68.5t65.5 -98.5t22.5 -116.5q0 -102 -31.5 -187t-90 -146.5t-142.5 -96.5t-188 -35h-429q-14 0 -12 20zM135 68h326q106 0 184 29.5t127 82.5t72.5 127t23.5 162q0 74 -30.5 120 t-74.5 72.5t-92 37t-85 10.5h-326z" />
<glyph unicode="&#x42d;" horiz-adv-x="1046" d="M6 39l8 22q4 12 21 13q29 -4 68.5 -7.5t83.5 -5.5t87 -4t78 -2q141 0 237.5 53.5t161 139.5t102.5 195.5t62 224.5h-571q-10 0 -8 14l8 41q0 10 12 10h572q18 100 18 201.5t-33.5 182.5t-113.5 131t-221 50q-82 0 -161 -7t-138 -11q-12 -2 -14.5 1t-2.5 9l2 23 q0 16 15 18q72 25 159.5 33t155.5 8q152 0 243 -51t135 -140t48 -213t-21 -268q-25 -143 -70.5 -273t-121.5 -229.5t-186.5 -157.5t-264.5 -58q-23 0 -67.5 2t-96 6t-100.5 11t-78 19q-12 6 -8 19z" />
<glyph unicode="&#x42e;" horiz-adv-x="1503" d="M68 12l258 1334q2 12 12 12h53q10 0 8 -12l-114 -592h196q23 100 63 209.5t108.5 200.5t171 150.5t247.5 59.5q109 0 182.5 -31.5t117.5 -84t62.5 -122t18.5 -145.5q0 -68 -7 -153.5t-24 -163.5q-25 -129 -66.5 -253t-112.5 -221.5t-177.5 -157.5t-263.5 -60 q-96 0 -166 30.5t-115 84t-65.5 125t-20.5 153.5q0 76 9.5 154.5t25.5 158.5h-197l-131 -676q-2 -12 -12 -12h-53q-10 0 -8 12zM508 387q0 -76 16.5 -138.5t53 -106.5t95 -68.5t140.5 -24.5q115 0 203 46t152.5 127t108.5 191.5t69 239.5q16 80 24 164t8 148 q0 156 -71.5 249t-247.5 93q-117 0 -203 -48.5t-146.5 -132.5t-100.5 -198.5t-66 -249.5q-16 -78 -25.5 -151.5t-9.5 -139.5z" />
<glyph unicode="&#x42f;" horiz-adv-x="1044" d="M-29 25l197 403q47 92 96 146.5t119 76.5q-90 35 -132 112t-42 175q0 113 39 192.5t105.5 131t151.5 74t177 22.5h397q16 0 13 -12l-258 -1332q-2 -14 -17 -14h-49q-12 0 -10 14l114 594h-313q-49 0 -92 -7t-82 -26.5t-72.5 -56.5t-64.5 -96l-199 -406q-6 -12 -11 -14 t-15 -2h-43q-20 0 -9 25zM285 942q0 -88 36.5 -141t86 -81t99.5 -36t77 -8h303l119 612h-312q-78 0 -151.5 -18.5t-131 -59.5t-92 -107.5t-34.5 -160.5z" />
<glyph unicode="&#x430;" horiz-adv-x="1011" d="M84 229q0 47 7 120t18 134q27 135 60.5 235.5t85.5 167t126 99.5t178 33q90 0 174 -22.5t162 -63.5h4l10 51q2 10 5.5 11t9.5 1h49q8 0 6 -12l-186 -973q-2 -10 -13 -10h-49q-14 0 -12 10l20 113q-37 -20 -86 -45t-105 -45.5t-115.5 -34.5t-119.5 -14q-117 0 -173 58 t-56 187zM162 264q0 -119 41 -167t139 -48q45 0 103.5 16.5t117 38t109.5 45t82 37.5l135 686q-88 35 -169 58.5t-159 23.5q-80 0 -139.5 -25.5t-103.5 -83t-75.5 -147.5t-56.5 -219t-24 -215z" />
<glyph unicode="&#x431;" horiz-adv-x="976" d="M86 287q0 47 8 105.5t17 99.5q10 57 31.5 126.5t60.5 137t101.5 124t154.5 87.5q-70 29 -101.5 67.5t-31.5 100.5q0 84 27.5 144t76.5 99t116.5 57.5t147.5 18.5q27 0 64 -2t75.5 -7t75.5 -12.5t66 -17.5q10 -4 6 -18l-8 -21q-2 -10 -17 -8q-55 4 -134 12.5t-142 8.5 q-57 0 -107.5 -13.5t-88.5 -43t-59.5 -77t-21.5 -112.5q0 -39 23 -64.5t58.5 -44t79.5 -32t89 -25.5q61 -16 110.5 -40t84.5 -59.5t52.5 -87t17.5 -120.5q0 -37 -5.5 -88t-11.5 -90q-16 -94 -40.5 -185.5t-77 -163t-143.5 -115.5t-239 -44q-92 0 -153.5 23.5t-97 64.5 t-50 96t-14.5 119zM162 297q-2 -117 53 -183.5t199 -66.5q104 0 173.5 28.5t116 84t74 134.5t45.5 181q10 59 16.5 110.5t4.5 90.5q0 68 -22.5 111.5t-62.5 71.5t-93.5 44.5t-114.5 30.5q-154 -37 -241 -146.5t-128 -312.5q-10 -49 -15 -93t-5 -85z" />
<glyph unicode="&#x432;" horiz-adv-x="952" d="M34.5 38.5q-3.5 12.5 0.5 35.5l106 567q37 182 139.5 279.5t297.5 97.5q133 0 201.5 -55.5t68.5 -151.5q0 -35 -11.5 -70.5t-35 -68.5t-61.5 -57.5t-89 -34.5v-2q61 -10 99 -34t61 -54.5t31 -64.5t8 -60q0 -39 -13.5 -103.5t-60.5 -127t-138 -107.5t-245 -45 q-125 2 -197.5 12t-134.5 26q-23 6 -26.5 18.5zM106 80q72 -16 140 -23.5t160 -7.5q115 0 188.5 33t115.5 80t57 101t15 97q0 76 -54 123t-167 47h-137q-8 0 -14.5 1t-3.5 12l4 35q0 12 14 12q74 2 137.5 15t110.5 39t73.5 66t26.5 95q0 63 -48 105t-159 42 q-141 0 -232 -76.5t-126 -252.5z" />
<glyph unicode="&#x433;" horiz-adv-x="827" d="M45 184q0 98 32 161t86 102.5t123.5 62t147.5 41.5q150 35 222.5 88t76.5 145q4 78 -48 123t-189 45q-63 0 -145.5 -8t-139.5 -14q-12 -4 -12 10v21q0 12 12 16q33 10 75 18.5t86 13.5t83.5 7t66.5 2q82 0 137.5 -17.5t89 -50t47 -77t9.5 -95.5q-6 -66 -37 -114 t-82 -81.5t-118.5 -57t-147.5 -42.5q-74 -16 -131.5 -38.5t-95 -57.5t-58 -84t-20.5 -119q0 -78 64.5 -107.5t197.5 -29.5q25 0 63.5 2t81.5 6t83 7.5t69 7.5q14 2 14 -13v-18q0 -10 -4 -12l-8 -4q-33 -10 -75 -17.5t-85 -11.5t-83 -6t-66 -2q-168 0 -245 47t-77 151z" />
<glyph unicode="&#x434;" horiz-adv-x="1003" d="M80 291q0 8 2 62.5t15.5 128t42 158.5t82.5 156.5t137 119t204 47.5q102 0 191.5 -32t148.5 -69l6 4q4 47 6.5 78t2.5 57q0 82 -12.5 152t-47.5 121t-97.5 80.5t-162.5 29.5q-55 0 -97 -2t-106 -8q-16 -2 -16 10v23q0 10 3 12t9 4q55 16 103.5 21.5t113.5 5.5 q203 0 292 -115t87 -342q0 -12 -2 -49t-6 -83t-9 -92t-12 -77q-25 -145 -62.5 -273t-99 -224.5t-151.5 -152.5t-221 -56q-98 0 -164.5 22.5t-106.5 62.5t-56.5 96t-16.5 124zM156 299q0 -53 12 -98t43 -79t83 -52.5t132 -18.5q92 0 160.5 39t120 101.5t85 142.5t55 162 t34 158.5t18.5 133.5q-59 41 -147 75t-205 34q-109 0 -183.5 -58.5t-120.5 -147.5t-66.5 -193.5t-20.5 -198.5z" />
<glyph unicode="&#x435;" horiz-adv-x="966" d="M102 252q0 72 15.5 142.5t29.5 142.5q14 80 45 163.5t88.5 154.5t148.5 116t230 45q55 0 106.5 -15.5t90.5 -43t61.5 -68.5t22.5 -90q0 -90 -37 -154.5t-98.5 -110t-139 -74t-160.5 -44t-164 -21.5t-146 -6q-10 -47 -13.5 -81t-3.5 -62q0 -115 68.5 -155t175.5 -40 q86 0 171 7.5t171 15.5q16 0 16 -11l-2 -20q0 -14 -12 -16q-35 -12 -83 -21.5t-99.5 -14.5t-101.5 -7t-87 -2q-145 0 -219 59t-74 211zM203 451q45 0 112.5 4t141 16t147.5 34.5t132.5 58.5t95 87t36.5 121q0 55 -21.5 91t-54 56.5t-71.5 28.5t-76 8q-127 0 -205 -46 t-123 -111q-35 -53 -53 -110.5t-33 -119.5z" />
<glyph unicode="&#x436;" horiz-adv-x="1669" d="M-29 33l9 20q4 6 6 9.5t12 0.5q27 -4 46 -6t37.5 -4t41 -3t53.5 -1q84 0 147.5 24.5t111.5 79t83 141.5t60 214q10 53 15 99t7 87q4 139 -55.5 198.5t-192.5 59.5q-31 0 -55.5 -1t-46 -4t-44 -6t-50.5 -5q-12 0 -13 10v21q0 12 13 16q66 23 113.5 29t101.5 6 q117 0 183.5 -44t94 -120t21.5 -177.5t-33 -215.5l4 -2q72 123 144.5 259t140.5 265q6 14 24 14h31q14 0 10 -14l-160 -776h5q39 80 74.5 150.5t68.5 131.5q35 61 76 132t90 149q59 115 149 181.5t248 66.5q35 0 87 -6t104 -27q10 -4 6 -16l-8 -23q-2 -10 -17 -10 q-27 2 -46 5t-38.5 6t-41 4t-54.5 1q-86 0 -149.5 -23.5t-111.5 -76.5t-81 -138t-55 -206q-10 -59 -18.5 -114.5t-8.5 -106.5q0 -53 12.5 -96.5t41 -76t75.5 -50t119 -17.5h53.5t43 2t41 3t46.5 5q16 2 17 -10l-3 -22q0 -14 -12 -17q-59 -16 -109.5 -21t-105.5 -5 q-115 0 -177 44t-87 116.5t-20.5 165.5t20.5 192h-6q-39 -68 -72 -128.5t-61.5 -118.5t-57 -116.5t-59.5 -122.5q-6 -14 -25 -14h-43q-12 0 -8 14l144 744l-5 2q-39 -82 -75.5 -151.5t-71.5 -127.5q-35 -57 -73 -118.5t-83 -126.5q-33 -55 -65.5 -102.5t-76.5 -81.5 t-103.5 -52t-143.5 -18q-45 0 -99 7t-101 27q-12 4 -9 17z" />
<glyph unicode="&#x437;" horiz-adv-x="880" d="M29 45l6 14q4 10 8 12.5t14 0.5q78 -12 158 -17.5t127 -5.5q164 0 263.5 61.5t99.5 200.5q2 104 -85.5 143.5t-236.5 39.5h-31q-14 0 -12 14l6 35q2 12 19 12h32q184 0 273.5 62.5t89.5 183.5q0 51 -27.5 81.5t-68.5 46t-90.5 19.5t-88.5 4q-47 0 -119.5 -6t-129.5 -16 q-14 -4 -16.5 -1t-4.5 9l-2 18q-2 10 1 13.5t15 7.5q84 23 161 32t126 9q162 0 244 -57.5t82 -155.5q0 -45 -12.5 -88t-42 -80t-77.5 -65.5t-122 -45.5v-2q35 -2 70.5 -17t65.5 -43t47 -68t15 -89q0 -88 -34.5 -149.5t-94 -101.5t-142.5 -57t-177 -17q-31 0 -71 3t-82 8 t-82 13t-68 19q-12 4 -6 20z" />
<glyph unicode="&#x438;" horiz-adv-x="985" d="M80 213q10 68 24 141l123 633q0 12 13 12h51q10 0 8 -12l-125 -641q-12 -63 -18 -118.5t7 -95.5t52 -63.5t119 -23.5q45 0 105.5 16.5t119.5 38t111.5 45t83.5 37.5l155 805q2 12 17 12h45q10 0 8 -12l-188 -975q-2 -10 -13 -10h-47q-14 0 -12 10l22 113q-35 -18 -85 -43 t-108.5 -46.5t-121 -36.5t-121.5 -15q-104 0 -154.5 29.5t-65.5 80.5t-5 119z" />
<glyph unicode="&#x439;" horiz-adv-x="985" d="M80 213q10 68 24 141l123 633q0 12 13 12h51q10 0 8 -12l-125 -641q-12 -63 -18 -118.5t7 -95.5t52 -63.5t119 -23.5q45 0 105.5 16.5t119.5 38t111.5 45t83.5 37.5l155 805q2 12 17 12h45q10 0 8 -12l-188 -975q-2 -10 -13 -10h-47q-14 0 -12 10l22 113q-35 -18 -85 -43 t-108.5 -46.5t-121 -36.5t-121.5 -15q-104 0 -154.5 29.5t-65.5 80.5t-5 119zM367 1305q-4 10 4 18l24 16q8 4 13.5 1t9.5 -7q35 -51 76.5 -90t117.5 -39q72 0 127.5 37t122.5 96q10 10 19 2l20 -20q6 -6 -2 -19q-66 -86 -143.5 -123.5t-153.5 -37.5t-136 44t-99 122z" />
<glyph unicode="&#x43a;" horiz-adv-x="835" d="M43 16l188 969q2 14 15 14h43q14 0 12 -14l-86 -440h207q27 0 60.5 6t69.5 24.5t69.5 53.5t64.5 90l137 258q12 20 27 20h39q25 0 10 -20l-139 -262q-43 -84 -88 -132t-109 -63q72 -14 99.5 -60t42.5 -149l40 -288q0 -23 -16 -23h-33q-8 0 -12 2t-8 14l-41 289 q-6 55 -21.5 90t-40 54.5t-60.5 25.5t-81 6h-229l-90 -465q-2 -16 -17 -16h-43q-12 0 -10 16z" />
<glyph unicode="&#x43b;" horiz-adv-x="1032" d="M-63 27q0 12 7 13t19 3q123 14 192.5 92t110.5 246l135 537q12 47 31 64t70 17h516q12 0 10 -12l-188 -975q-2 -12 -15 -12h-43q-16 0 -14 12l180 928h-471l-151 -594q-18 -63 -42 -127.5t-65 -116t-104.5 -84t-161.5 -32.5q-14 0 -14 14z" />
<glyph unicode="&#x43c;" horiz-adv-x="1148" d="M25 14l190 971q0 14 16 14h48q16 0 18 -10l238 -743l536 739q6 14 29 14h41q18 0 14 -16l-188 -969q-2 -14 -13 -14h-43q-16 0 -14 14l168 856l-506 -690q-2 -4 -7 -8t-11 -4h-39q-20 0 -23 12q-33 86 -58.5 171t-50 171t-51 173t-59.5 173l-166 -854q-2 -14 -16 -14h-39 q-16 0 -14 14z" />
<glyph unicode="&#x43d;" horiz-adv-x="960" d="M25 12l188 975q2 12 12 12h45q14 0 13 -12l-84 -432h612l84 432q2 12 18 12h43q12 0 11 -12l-189 -975q-2 -12 -14 -12h-43q-16 0 -14 12l94 488h-613l-94 -488q-2 -12 -16 -12h-45q-10 0 -8 12z" />
<glyph unicode="&#x43e;" horiz-adv-x="976" d="M84 291q0 57 8 113.5t19 113.5q20 102 54 193.5t91 159t140 107.5t202 40q160 0 243 -76t83 -237q0 -47 -5.5 -93.5t-15.5 -93.5q-23 -115 -53.5 -212t-86.5 -168.5t-144.5 -112.5t-221.5 -41q-160 0 -236.5 74.5t-76.5 232.5zM160 299q0 -129 59.5 -190.5t190.5 -61.5 q106 0 177.5 37t118 99.5t73 144.5t44.5 174q10 49 17.5 100t7.5 103q0 135 -66.5 190t-197.5 55q-104 0 -173 -38t-114 -100t-70.5 -143t-42.5 -167q-10 -51 -17 -101.5t-7 -101.5z" />
<glyph unicode="&#x43f;" horiz-adv-x="960" d="M25 12l188 973q2 12 14 12h45q14 0 13 -12l-23 -111q35 18 85 43t108.5 46.5t121 37t121.5 15.5q104 0 154.5 -30t66 -81t5 -118.5t-24.5 -141.5l-121 -633q-2 -12 -14 -12h-51q-10 0 -8 12l124 641q12 68 19.5 124.5t-6 95t-53 60t-117.5 21.5q-45 0 -105.5 -16 t-121 -37.5t-112.5 -45.5t-83 -38l-156 -805q-2 -12 -16 -12h-45q-10 0 -8 12z" />
<glyph unicode="&#x440;" horiz-adv-x="980" d="M-25 -348l263 1335q2 12 8 12h53q10 0 8 -12l-20 -108q39 20 89 44.5t107.5 45t118 35t119.5 14.5q123 0 177 -61.5t54 -192.5q0 -53 -8 -118.5t-21.5 -133.5t-32 -132.5t-36.5 -113.5q-57 -141 -151.5 -212.5t-253.5 -71.5q-59 0 -145.5 15t-176.5 56l-4 -2l-78 -399 q-2 -12 -12 -12h-53q-6 0 -5 12zM135 104q96 -31 178 -45t160 -14q111 0 183.5 54.5t123.5 174.5q18 43 34.5 101.5t30 121t21.5 124t8 108.5q0 119 -44 171t-136 52q-45 0 -105.5 -16t-120.5 -37.5t-112.5 -46.5t-83.5 -39z" />
<glyph unicode="&#x441;" horiz-adv-x="802" d="M82 268q-2 53 6 112.5t21 125.5q20 104 49.5 197.5t83 163t135.5 110.5t205 41q27 0 64.5 -2t78.5 -7t79 -13.5t66 -18.5q12 -4 7 -16l-9 -21q-4 -6 -5 -8t-11 -2q-27 2 -61.5 6t-72.5 8t-75 6t-70 2q-86 0 -148.5 -23.5t-108.5 -76.5t-77.5 -138t-54.5 -206 q-12 -66 -19 -119t-7 -96q0 -131 56 -187.5t185 -56.5q31 0 69 2t77 5t73.5 6.5t63.5 7.5q16 0 16 -11l-2 -20q0 -14 -12 -16q-33 -10 -76 -18.5t-87 -13.5t-85 -7t-67 -2q-162 0 -224.5 74.5t-62.5 211.5z" />
<glyph unicode="&#x442;" horiz-adv-x="1587" d="M35 12l188 973q2 12 10 12h54q10 0 8 -12l-23 -111q35 18 85.5 43t108.5 46.5t121 37t122 15.5q98 0 139 -43t47 -111q111 59 225.5 106.5t231.5 47.5q96 0 137 -41t49 -104.5t-6 -142.5t-29 -153l-108 -563q-2 -12 -13 -12h-55q-6 0 -4 12l111 572q12 63 23 128.5t6 120 t-35.5 88t-102.5 33.5q-45 0 -105.5 -16t-120 -38.5t-111.5 -46.5t-83 -36l-8 -4q-2 -55 -14.5 -116.5t-22.5 -121.5l-108 -563q-2 -12 -13 -12h-57q-6 0 -4 12l113 572q12 63 23 128.5t6 120t-35.5 88t-102.5 33.5q-45 0 -105.5 -16t-121 -37.5t-112.5 -45.5t-83 -38 l-156 -805q-2 -12 -12 -12h-53q-6 0 -4 12z" />
<glyph unicode="&#x443;" horiz-adv-x="901" d="M155 -359q-1 1 3 11l180 344l-174 991q0 10 10 10h45q14 0 17 -14l157 -897h2l482 899q4 6 9 10t15 4h47q10 0 10 -3t-4 -11l-718 -1335q-6 -10 -19 -10h-51q-10 0 -11 1z" />
<glyph unicode="&#x444;" horiz-adv-x="1222" d="M115 385q6 125 37.5 238.5t100.5 201.5t176.5 141.5t262.5 57.5l60 322q2 12 14 12h49q8 0 6 -12l-61 -322q104 -4 178 -35t119 -82t65.5 -119.5t18.5 -144.5q0 -123 -30 -238.5t-97.5 -204.5t-179 -146.5t-275.5 -63.5l-67 -338q-2 -12 -11 -12h-49q-12 0 -10 12l70 338 q-104 2 -178 33.5t-118 84t-63.5 123t-17.5 154.5zM188 387q-4 -164 68 -244t248 -90l174 903q-127 4 -217 -41t-148.5 -122.5t-88 -183t-36.5 -222.5zM571 53q135 10 228.5 57.5t153 124t86 179t26.5 223.5q4 154 -75 234.5t-245 84.5z" />
<glyph unicode="&#x445;" horiz-adv-x="829" d="M-33 14l424 494l-217 473q-4 4 -2 10t14 6h43q12 0 17 -12l194 -424l361 424q8 12 22 12h58q10 0 8 -6t-6 -10l-400 -473l238 -492q2 -6 1 -11t-13 -5h-50q-16 0 -20 10l-205 445l-377 -445q-10 -10 -26 -10h-62q-16 0 -2 14z" />
<glyph unicode="&#x446;" horiz-adv-x="1021" d="M80 213q10 68 24 141l123 633q0 12 13 12h51q10 0 8 -12l-125 -641q-12 -63 -18 -118.5t7 -95.5t52 -63.5t119 -23.5q45 0 105.5 16.5t119.5 38t111.5 45t83.5 37.5l155 805q2 12 17 12h45q10 0 8 -12l-160 -829q-8 -37 8.5 -57.5t37 -37t37 -33t9.5 -42.5l-51 -219 q-6 -23 -11 -28t-15 -5h-21q-10 0 -14 5t0 28l35 219q-31 23 -57.5 55.5t-31.5 79.5q-35 -18 -85 -43t-109 -46.5t-122.5 -35.5t-123.5 -14q-104 0 -154.5 29.5t-65.5 80.5t-5 119z" />
<glyph unicode="&#x447;" horiz-adv-x="864" d="M110.5 629.5q8.5 68.5 22.5 142.5l39 209q2 12 14 12h58q4 0 2 -12l-41 -217q-12 -63 -18.5 -118.5t7 -95.5t52.5 -63.5t116 -23.5q45 0 103.5 14.5t117 34.5t109.5 43t80 37l76 389q2 12 14 12h53q4 0 3 -12l-189 -969q-2 -12 -8 -12h-53q-10 0 -9 12l103 520 q-35 -18 -84 -41.5t-105.5 -44t-117 -35t-119.5 -14.5q-102 0 -152.5 31t-66 82t-7 119.5z" />
<glyph unicode="&#x448;" horiz-adv-x="1589" d="M80 129.5q-8 63.5 6 142t29 152.5l108 563q2 12 13 12h55q6 0 4 -12l-111 -571q-12 -63 -23 -129t-6 -120t35.5 -88t102.5 -34q45 0 105.5 16.5t120 39t111.5 46t83 35.5l8 4q2 55 14.5 117t22.5 121l108 563q2 12 13 12h57q6 0 4 -12l-113 -571q-12 -63 -23 -129 t-6 -120t35.5 -88t102.5 -34q45 0 105.5 16.5t121 38t112.5 45t83 37.5l155 805q2 12 13 12h53q6 0 4 -12l-190 -975q-2 -12 -13 -12h-49q-12 0 -10 12l25 113q-35 -18 -85.5 -43t-108.5 -46.5t-121 -36.5t-122 -15q-98 0 -139 43t-47 110q-111 -59 -225.5 -106t-231.5 -47 q-96 0 -137 41t-49 104.5z" />
<glyph unicode="&#x449;" horiz-adv-x="1624" d="M80 129.5q-8 63.5 6 142t29 152.5l108 563q2 12 13 12h55q6 0 4 -12l-111 -571q-12 -63 -23 -129t-6 -120t35.5 -88t102.5 -34q45 0 105.5 16.5t120 39t111.5 46t83 35.5l8 4q2 55 14.5 117t22.5 121l108 563q2 12 13 12h57q6 0 4 -12l-113 -571q-12 -63 -23 -129 t-6 -120t35.5 -88t102.5 -34q45 0 105.5 16.5t120 38t111.5 45t83 37.5l155 805q2 12 17 12h45q10 0 8 -12l-160 -829q-8 -37 8.5 -57.5t37 -37t37 -33t9.5 -42.5l-51 -219q-6 -23 -11 -28t-15 -5h-21q-10 0 -14 5t0 28l35 219q-31 23 -57.5 55.5t-30.5 79.5 q-35 -18 -85.5 -43t-109.5 -46.5t-121.5 -35.5t-122.5 -14q-98 0 -139 43t-47 110q-111 -59 -225.5 -106t-231.5 -47q-96 0 -137 41t-49 104.5z" />
<glyph unicode="&#x44a;" horiz-adv-x="1150" d="M63 956l7 31q2 12 14 12h430q16 0 14 -14l-75 -381l4 -2q117 43 199.5 59.5t142.5 16.5q150 0 224.5 -62.5t76.5 -209.5q-2 -80 -23.5 -156t-74 -135.5t-142.5 -95t-231 -35.5q-117 4 -192 13t-130 23q-23 6 -27 18.5t1 35.5l170 866h-377q-14 0 -11 16zM352 76 q53 -10 124 -18.5t167 -12.5q115 0 189.5 30.5t118.5 80t61.5 114t17.5 131.5q0 121 -59.5 165t-175.5 44q-39 0 -76 -5t-79 -14t-90.5 -23.5t-107.5 -32.5l-6 -30t-13 -67t-26.5 -133t-44.5 -229z" />
<glyph unicode="&#x44b;" horiz-adv-x="1241" d="M34.5 38.5q-3.5 12.5 0.5 35.5l178 911q2 14 18 14h37q16 0 15 -14l-76 -381l4 -2q117 43 200 59.5t142 16.5q150 0 224.5 -62.5t76.5 -209.5q-2 -80 -23.5 -156t-73.5 -135.5t-142.5 -95t-231.5 -35.5q-117 4 -191.5 13t-130.5 23q-23 6 -26.5 18.5zM106 76 q53 -10 124 -18.5t167 -12.5q115 0 190 30.5t119 80t61 114t17 131.5q0 121 -59 165t-176 44q-39 0 -76 -5t-79 -14t-90 -23.5t-107 -32.5q-2 -10 -6.5 -30t-13.5 -67t-26.5 -133t-44.5 -229zM928 12l188 973q2 12 14 12h52q8 0 6 -12l-189 -973q-2 -12 -14 -12h-47 q-12 0 -10 12z" />
<glyph unicode="&#x44c;" horiz-adv-x="925" d="M34.5 38.5q-3.5 12.5 0.5 35.5l178 911q2 14 18 14h37q16 0 15 -14l-76 -381l4 -2q117 43 200 59.5t142 16.5q150 0 224.5 -62.5t76.5 -209.5q-2 -80 -23.5 -156t-73.5 -135.5t-142.5 -95t-231.5 -35.5q-117 4 -191.5 13t-130.5 23q-23 6 -26.5 18.5zM106 76 q53 -10 124 -18.5t167 -12.5q115 0 190 30.5t119 80t61 114t17 131.5q0 121 -59 165t-176 44q-39 0 -76 -5t-79 -14t-90 -23.5t-107 -32.5q-2 -10 -6.5 -30t-13.5 -67t-26.5 -133t-44.5 -229z" />
<glyph unicode="&#x44d;" horiz-adv-x="802" d="M-8 39l8 20q2 4 4 8.5t12 2.5q55 -8 132 -15.5t141 -7.5q82 0 145.5 24.5t109.5 78t77.5 136.5t54.5 199h-463q-14 0 -12 9l8 45q2 12 16 12h463q39 215 -14 308t-225 93q-63 0 -131 -7t-128 -15q-10 -2 -10 2t-2 8v21q0 12 15 16q66 23 141.5 32t128.5 9 q123 0 190.5 -38t96 -105.5t25.5 -162t-21 -206.5q-18 -106 -48 -201.5t-84.5 -167t-136.5 -113.5t-204 -42q-27 0 -65 2t-77 7t-76.5 13t-64.5 19q-12 4 -6 16z" />
<glyph unicode="&#x44e;" horiz-adv-x="1208" d="M51 12l189 975q2 12 12 12h45q14 0 12 -12l-84 -432h156q20 96 53 180t86 147.5t132 99.5t192 36q160 0 235.5 -76t75.5 -237q0 -37 -4 -88.5t-14 -98.5q-23 -115 -52.5 -212t-83 -168.5t-139.5 -112.5t-219 -41q-150 0 -222.5 74.5t-72.5 232.5q0 53 6 104t17 105h-156 l-94 -488q-2 -12 -17 -12h-45q-10 0 -8 12zM424 299q0 -115 52 -183.5t179 -68.5q106 0 176 37t114 99.5t67.5 144.5t42.5 174q10 49 17 100t7 103q0 135 -59.5 190t-190.5 55q-96 0 -160.5 -38t-107.5 -100t-68.5 -143t-43.5 -167q-10 -51 -17.5 -101.5t-7.5 -101.5z" />
<glyph unicode="&#x44f;" horiz-adv-x="972" d="M27 23l110 258q35 78 79 127t110 67q-94 29 -129 93.5t-33 142.5q2 76 29.5 130t73.5 90t105.5 52t123.5 16h442q20 0 16 -14l-166 -969q-2 -16 -20 -16h-33q-16 0 -14 16l76 435h-295q-47 0 -88 -6.5t-77 -25t-67.5 -53t-56.5 -92.5l-113 -258q-6 -12 -11 -14t-13 -2 h-41q-20 0 -8 23zM238 709q0 -61 22.5 -100.5t57 -60t74.5 -27.5t75 -7h340l76 422h-385q-47 0 -93.5 -11.5t-83 -38t-60 -70.5t-23.5 -107z" />
<glyph unicode="&#x451;" horiz-adv-x="966" d="M102 252q0 72 15.5 142.5t29.5 142.5q14 80 45 163.5t88.5 154.5t148.5 116t230 45q55 0 106.5 -15.5t90.5 -43t61.5 -68.5t22.5 -90q0 -90 -37 -154.5t-98.5 -110t-139 -74t-160.5 -44t-164 -21.5t-146 -6q-10 -47 -13.5 -81t-3.5 -62q0 -115 68.5 -155t175.5 -40 q86 0 171 7.5t171 15.5q16 0 16 -11l-2 -20q0 -14 -12 -16q-35 -12 -83 -21.5t-99.5 -14.5t-101.5 -7t-87 -2q-145 0 -219 59t-74 211zM203 451q45 0 112.5 4t141 16t147.5 34.5t132.5 58.5t95 87t36.5 121q0 55 -21.5 91t-54 56.5t-71.5 28.5t-76 8q-127 0 -205 -46 t-123 -111q-35 -53 -53 -110.5t-33 -119.5zM430 1239q0 29 13.5 49.5t48.5 20.5q16 0 27 -6.5t11 -24.5q0 -31 -13 -51.5t-46 -20.5q-16 0 -28.5 6.5t-12.5 26.5zM788 1239q0 29 13.5 49.5t48.5 20.5q16 0 27.5 -6.5t11.5 -24.5q0 -31 -13.5 -51.5t-46.5 -20.5 q-16 0 -28.5 6.5t-12.5 26.5z" />
<glyph unicode="&#x452;" horiz-adv-x="1044" d="M82 12l231 1188h-147q-14 0 -10 10l6 35q2 12 16 12h146l32 168q2 12 9 13h53q10 0 8 -13l-33 -168h494q10 0 8 -10l-6 -37q-2 -4 -3 -7t-9 -3h-494l-66 -336q96 53 185.5 81t187.5 28q78 0 131 -26.5t86 -69.5t46.5 -99.5t13.5 -118.5q0 -96 -24.5 -208.5t-86 -223 t-166 -207t-266.5 -159.5q-4 -2 -10 -2t-11 10l-6 16q-4 16 15 25q242 119 361.5 306t119.5 429q0 82 -21.5 134t-53.5 80t-67.5 38t-66.5 10q-92 0 -185 -28.5t-196 -79.5l-151 -787q-2 -12 -13 -12h-53q-6 0 -4 12z" />
<glyph unicode="&#x453;" horiz-adv-x="827" d="M45 184q0 98 32 161t86 102.5t123.5 62t147.5 41.5q150 35 222.5 88t76.5 145q4 78 -48 123t-189 45q-63 0 -145.5 -8t-139.5 -14q-12 -4 -12 10v21q0 12 12 16q33 10 75 18.5t86 13.5t83.5 7t66.5 2q82 0 137.5 -17.5t89 -50t47 -77t9.5 -95.5q-6 -66 -37 -114 t-82 -81.5t-118.5 -57t-147.5 -42.5q-74 -16 -131.5 -38.5t-95 -57.5t-58 -84t-20.5 -119q0 -78 64.5 -107.5t197.5 -29.5q25 0 63.5 2t81.5 6t83 7.5t69 7.5q14 2 14 -13v-18q0 -10 -4 -12l-8 -4q-33 -10 -75 -17.5t-85 -11.5t-83 -6t-66 -2q-168 0 -245 47t-77 151z M483.5 1155q-2.5 4 5.5 14l185 261q10 16 22 8l52 -29q10 -4 0 -14l-218 -250q-4 -4 -9 -8t-9 0l-20 10q-6 4 -8.5 8z" />
<glyph unicode="&#x454;" horiz-adv-x="802" d="M68 268q-2 53 6 114.5t20 127.5q20 104 48 197.5t79 162t131 108.5t203 40q27 0 64.5 -2t78.5 -7t79 -13.5t67 -18.5q12 -4 6 -16l-8 -21q-4 -6 -5 -8t-12 -2q-27 2 -61.5 6t-72.5 8t-74.5 6t-69.5 2q-84 0 -143.5 -22.5t-102.5 -72.5t-73.5 -129t-53.5 -191h459 q14 0 12 -13l-8 -45q-2 -8 -16 -8h-459q-18 -104 -19 -178q0 -131 52.5 -187.5t189.5 -56.5q31 0 69 2t76.5 5t73.5 6.5t64 7.5q16 0 16 -11l-2 -20q0 -14 -12 -16q-33 -10 -76 -18.5t-87 -13.5t-85 -7t-68 -2q-162 0 -224 74.5t-62 211.5z" />
<glyph unicode="&#x455;" horiz-adv-x="827" d="M10 39l6 20q4 12 21 11q27 -4 65.5 -7.5t79.5 -7.5t79 -6t63 -2q68 0 126 11.5t101 41t66.5 78.5t23.5 123q0 45 -16.5 77t-46 52.5t-67.5 32.5t-81 20q-63 10 -116.5 22.5t-91.5 37t-59.5 63.5t-21.5 101q0 84 31 143t83 96t119.5 54.5t141.5 17.5q27 0 66 -2t79.5 -7 t79.5 -13.5t68 -18.5q12 -4 6 -16l-8 -21q-6 -10 -16 -10q-27 2 -62 6t-71.5 8t-73.5 6t-70 2q-63 0 -117.5 -14t-94.5 -44t-62.5 -78t-22.5 -116q0 -39 15.5 -63.5t44 -40.5t70.5 -26.5t95 -18.5q57 -10 107.5 -24.5t87.5 -41t58.5 -70.5t21.5 -114q0 -88 -31 -148.5 t-83 -97.5t-122.5 -53t-150.5 -16q-27 0 -69 2t-87 6t-88 11t-70 18q-10 4 -6 16z" />
<glyph unicode="&#x456;" horiz-adv-x="403" d="M86 12l188 973q2 12 15 12h51q8 0 6 -12l-188 -973q-2 -12 -15 -12h-47q-12 0 -10 12zM313 1243q0 33 13.5 53.5t48.5 20.5q16 0 29.5 -6t13.5 -27q0 -31 -14.5 -52.5t-49.5 -21.5q-16 0 -28.5 7.5t-12.5 25.5z" />
<glyph unicode="&#x457;" horiz-adv-x="403" d="M86 12l188 973q2 12 15 12h51q8 0 6 -12l-188 -973q-2 -12 -15 -12h-47q-12 0 -10 12zM133 1239q0 29 13.5 49.5t48.5 20.5q16 0 27 -6.5t11 -24.5q0 -31 -13 -51.5t-46 -20.5q-16 0 -28.5 6.5t-12.5 26.5zM492 1239q0 29 13 49.5t48 20.5q16 0 27.5 -6.5t11.5 -24.5 q0 -31 -13.5 -51.5t-46.5 -20.5q-16 0 -28 6.5t-12 26.5z" />
<glyph unicode="&#x458;" horiz-adv-x="425" d="M-266 -338l8 19q2 10 18 8q33 -4 72 -4h66q49 0 79.5 11t51 31.5t32 49t17.5 63.5l223 1147q2 12 12 12h49q10 0 9 -12l-226 -1167q-18 -92 -70 -145.5t-157 -53.5q-66 0 -105.5 6t-70.5 17q-12 4 -8 18zM338 1243q0 33 13.5 53.5t47.5 20.5q16 0 29.5 -6t13.5 -27 q0 -31 -14 -52.5t-49 -21.5q-16 0 -28.5 7.5t-12.5 25.5z" />
<glyph unicode="&#x459;" horiz-adv-x="1572" d="M-53 29q0 12 7 13t19 3q70 8 116 27.5t79 57.5t57.5 98.5t50.5 152.5l136 537q12 47 30.5 64t69.5 17h414q16 0 14 -14l-76 -381l4 -2q117 43 200 59.5t142 16.5q150 0 224.5 -62.5t76.5 -209.5q-2 -80 -23.5 -156t-73.5 -135.5t-142 -95t-232 -35.5q-117 4 -191.5 13 t-129.5 23q-23 6 -27 18.5t0 35.5l170 866h-375l-151 -594q-18 -68 -40 -132t-61.5 -115.5t-104 -83t-167.5 -29.5q-14 0 -14 14zM764 76q53 -10 123.5 -18.5t167.5 -12.5q115 0 189.5 30.5t118.5 80t61.5 114t17.5 131.5q0 121 -59.5 165t-176.5 44q-39 0 -75.5 -5 t-78.5 -14t-90.5 -23.5t-107.5 -32.5l-6 -30t-13.5 -67t-26.5 -133t-44 -229z" />
<glyph unicode="&#x45a;" horiz-adv-x="1421" d="M51 12l189 975q2 12 12 12h47q10 0 11 -2t-1 -10l-80 -412h420l80 410q2 14 19 14h36q16 0 15 -14l-76 -381l4 -2q117 43 200 59.5t142 16.5q150 0 224.5 -62.5t76.5 -209.5q-2 -80 -23.5 -156t-73.5 -135.5t-142.5 -95t-231.5 -35.5q-117 4 -191.5 13t-129.5 23 q-23 6 -27 18.5t0 35.5q14 78 25.5 136t21.5 108.5t19.5 96.5t19.5 97h-420l-96 -500q-2 -8 -3 -10t-12 -2h-47q-10 0 -8 12zM623 76q53 -10 123.5 -18.5t166.5 -12.5q115 0 190 30.5t119 80t61 114t17 131.5q0 121 -59 165t-176 44q-39 0 -76 -5t-79 -14t-90 -23.5 t-107 -32.5q-2 -10 -6.5 -30t-13.5 -67t-26.5 -133t-43.5 -229z" />
<glyph unicode="&#x45b;" horiz-adv-x="960" d="M25 12l229 1188h-143q-10 0 -11 10l9 35q2 12 16 12h141l33 168q2 12 10 13h53q10 0 9 -13l-33 -168h516q10 0 8 -10l-8 -37q0 -10 -12 -10h-516l-66 -346q35 18 85 43t108.5 46.5t121 36.5t121.5 15q104 0 154.5 -29.5t66 -80.5t5 -119t-24.5 -141l-119 -613 q-2 -12 -12 -12h-57q-6 0 -4 12l122 621q12 63 18.5 118.5t-7 95.5t-52 63.5t-116.5 23.5q-45 0 -105.5 -16.5t-121 -38t-112.5 -45t-83 -37.5l-154 -785q-2 -12 -12 -12h-53q-6 0 -4 12z" />
<glyph unicode="&#x45c;" horiz-adv-x="835" d="M43 16l188 969q2 14 15 14h43q14 0 12 -14l-86 -440h207q27 0 60.5 6t69.5 24.5t69.5 53.5t64.5 90l137 258q12 20 27 20h39q25 0 10 -20l-139 -262q-43 -84 -88 -132t-109 -63q72 -14 99.5 -60t42.5 -149l40 -288q0 -23 -16 -23h-33q-8 0 -12 2t-8 14l-41 289 q-6 55 -21.5 90t-40 54.5t-60.5 25.5t-81 6h-229l-90 -465q-2 -16 -17 -16h-43q-12 0 -10 16zM469 1155q-2 4 6 14l184 261q10 16 23 8l51 -29q10 -4 0 -14l-217 -250q-4 -4 -9 -8t-9 0l-21 10q-6 4 -8 8z" />
<glyph unicode="&#x45e;" horiz-adv-x="901" d="M155 -359q-1 1 3 11l180 344l-174 991q0 10 10 10h45q14 0 17 -14l157 -897h2l482 899q4 6 9 10t15 4h47q10 0 10 -3t-4 -11l-718 -1335q-6 -10 -19 -10h-51q-10 0 -11 1zM367 1337q-4 10 4 19l24 16q8 4 13.5 1t9.5 -7q35 -51 76.5 -90t117.5 -39q72 0 127.5 37 t122.5 96q10 10 19 2l20 -20q6 -6 -2 -19q-66 -86 -143.5 -124t-153.5 -38t-136 44.5t-99 121.5z" />
<glyph unicode="&#x45f;" horiz-adv-x="985" d="M80 213q10 68 24 141l123 633q0 12 13 12h51q10 0 8 -12l-125 -641q-12 -63 -18 -118.5t7 -95.5t52 -63.5t119 -23.5q45 0 105.5 16.5t119.5 38t111.5 45t83.5 37.5l155 805q2 12 17 12h45q10 0 8 -12l-188 -975q-2 -10 -13 -10h-47q-14 0 -12 10l22 113q-35 -18 -85 -43 t-108.5 -46.5t-121 -36.5t-121.5 -15q-104 0 -154.5 29.5t-65.5 80.5t-5 119zM410 -342l34 258q0 2 3.5 6t13.5 6l55 9q6 2 12.5 -0.5t3.5 -12.5l-55 -266q-4 -23 -26 -23h-25q-20 0 -16 23z" />
<glyph unicode="&#x490;" horiz-adv-x="917" d="M68 14l258 1329q4 14 12 15h631l71 260q6 16 21 16h20q14 0 13 -16l-60 -318l-3 -9t-9 -3h-631l-248 -1274q-2 -14 -12 -14h-53q-12 0 -10 14z" />
<glyph unicode="&#x491;" horiz-adv-x="802" d="M47 14l189 971q4 14 14 14h543l67 240q4 12 8 15t13 3h26q10 0 10.5 -6t-2.5 -12l-55 -285q-2 -6 -4 -10t-12 -4h-547l-180 -926q-2 -14 -17 -14h-41q-14 0 -12 14z" />
<glyph unicode="&#x4d9;" horiz-adv-x="966" d="M63 201q0 90 34 154.5t91.5 110.5t133 74.5t157.5 44t167 20.5t163 5q4 33 10 74t6 70q0 115 -68.5 154.5t-174.5 39.5q-86 0 -171 -7t-171 -15q-16 0 -17 10l2 20q0 12 13 17q35 12 91 20t112.5 14.5t102.5 8.5t60 2q66 0 121 -13.5t94 -45t60.5 -83t21.5 -126.5 q0 -23 -4 -61t-11 -81t-15.5 -88t-14.5 -80q-16 -80 -46 -160.5t-87 -146t-148.5 -107.5t-230.5 -42q-55 0 -106.5 15t-90 43t-61.5 69t-23 90zM135 227q0 -55 20.5 -91t53.5 -56.5t70.5 -28.5t74.5 -8q127 0 207 42t125 108q35 53 57.5 111t34.5 120l23 125q-57 2 -129 -2 t-146.5 -16.5t-144.5 -35t-125 -58.5t-88 -88t-33 -122z" />
<glyph unicode="&#x2000;" horiz-adv-x="840" />
<glyph unicode="&#x2001;" horiz-adv-x="1681" />
<glyph unicode="&#x2002;" horiz-adv-x="840" />
<glyph unicode="&#x2003;" horiz-adv-x="1681" />
<glyph unicode="&#x2004;" horiz-adv-x="560" />
<glyph unicode="&#x2005;" horiz-adv-x="420" />
<glyph unicode="&#x2006;" horiz-adv-x="280" />
<glyph unicode="&#x2007;" horiz-adv-x="280" />
<glyph unicode="&#x2008;" horiz-adv-x="210" />
<glyph unicode="&#x2009;" horiz-adv-x="336" />
<glyph unicode="&#x200a;" horiz-adv-x="93" />
<glyph unicode="&#x2010;" horiz-adv-x="704" d="M119 633l12 55q2 12 14 12h541q10 0 10 -12l-12 -57q-2 -8 -12 -8h-543q-10 0 -10 10z" />
<glyph unicode="&#x2011;" horiz-adv-x="704" d="M119 633l12 55q2 12 14 12h541q10 0 10 -12l-12 -57q-2 -8 -12 -8h-543q-10 0 -10 10z" />
<glyph unicode="&#x2012;" horiz-adv-x="704" d="M119 633l12 55q2 12 14 12h541q10 0 10 -12l-12 -57q-2 -8 -12 -8h-543q-10 0 -10 10z" />
<glyph unicode="&#x2013;" horiz-adv-x="1024" d="M51 502l6 39q2 12 17 12h882q10 0 9 -12l-9 -43q-2 -8 -10 -9h-885q-14 0 -10 13z" />
<glyph unicode="&#x2014;" horiz-adv-x="2048" d="M63 502l7 39q2 12 16 12h1884q10 0 8 -12l-8 -41q-2 -10 -12 -11h-1884q-10 0 -11 13z" />
<glyph unicode="&#x2018;" horiz-adv-x="356" d="M236 1069q0 37 15 78t39.5 78t55.5 68.5t60 49.5q10 6 14 3l14 -15q6 -6 -4 -14q-37 -31 -60.5 -73t-23.5 -91q0 -57 19 -96q8 -12 -7 -21l-79 -47q-14 -6 -23 2q-12 16 -16 38t-4 40z" />
<glyph unicode="&#x2019;" horiz-adv-x="356" d="M215 1004q-6 8 4 14q37 33 60.5 75t23.5 91q0 25 -5 49t-15 45q-2 4 -2 10t10 10l80 48q14 6 20 -3q12 -16 17.5 -37.5t5.5 -39.5q0 -37 -15.5 -77t-40 -78t-55.5 -69.5t-59 -50.5q-10 -8 -17 -2z" />
<glyph unicode="&#x201a;" horiz-adv-x="346" d="M-25 -233q-5 6 5 14q37 31 60 73t23 91q0 57 -20 96q-4 12 8 20l80 48q14 6 23 -3q10 -16 15 -37.5t5 -39.5q0 -35 -15.5 -76t-40 -79t-55 -69.5t-59.5 -50.5q-12 -8 -14 -2z" />
<glyph unicode="&#x201c;" horiz-adv-x="491" d="M213 1069q0 37 15.5 78t40 78t55 68.5t59.5 49.5q10 6 14 3l15 -15q6 -6 -4 -14q-37 -31 -60.5 -73t-23.5 -91q0 -57 18 -96q8 -12 -6 -21l-80 -47q-14 -6 -23 2q-12 16 -16 38t-4 40zM408 1069q0 37 15 78t39.5 78t55.5 68.5t60 49.5q10 6 14 3l14 -15q6 -6 -4 -14 q-37 -31 -60.5 -73t-23.5 -91q0 -57 19 -96q8 -12 -7 -21l-79 -47q-14 -6 -23 2q-12 16 -16 38t-4 40z" />
<glyph unicode="&#x201d;" horiz-adv-x="491" d="M195 1004q-6 8 4 14q37 33 60.5 75t23.5 91q0 25 -5.5 49t-15.5 45q-2 4 -2 10t10 10l80 48q14 6 21 -3q12 -16 17 -37.5t5 -39.5q0 -37 -15.5 -77t-40 -78t-55 -69.5t-59.5 -50.5q-10 -8 -16 -2zM389 1004q-6 8 4 14q37 33 60.5 75t23.5 91q0 25 -5 49t-15 45 q-2 4 -2 10t10 10l80 48q14 6 20 -3q12 -16 17.5 -37.5t5.5 -39.5q0 -37 -15.5 -77t-40 -78t-55.5 -69.5t-59 -50.5q-10 -8 -17 -2z" />
<glyph unicode="&#x201e;" horiz-adv-x="540" d="M-25 -231q-5 8 5 14q37 33 60 75t23 91q0 25 -5 49.5t-15 44.5q-2 4 -2 10t10 10l80 48q14 6 21 -2q12 -16 17 -38t5 -40q0 -37 -15.5 -77t-40 -78t-55 -69.5t-59.5 -50.5q-10 -8 -16 -2zM170 -231q-6 8 4 14q37 33 60.5 75t23.5 91q0 25 -5 49.5t-15 44.5q-2 4 -2 10 t10 10l80 48q14 6 20 -2q12 -16 17.5 -38t5.5 -40q0 -37 -15.5 -77t-40 -78t-55.5 -69.5t-59 -50.5q-10 -8 -17 -2z" />
<glyph unicode="&#x2026;" horiz-adv-x="1134" d="M24.5 1q-6.5 19 0.5 46q4 29 19 46.5t54 17.5q37 0 45 -17.5t2 -46.5q-4 -29 -18 -47t-55 -18t-47.5 19zM424 47q4 29 19.5 46.5t54.5 17.5t46 -17.5t3 -46.5q-6 -29 -20.5 -47t-53.5 -18q-41 0 -47 19t-2 46zM821 47q4 29 19.5 46.5t54.5 17.5t46 -17.5t3 -46.5 q-6 -29 -20.5 -47t-53.5 -18q-41 0 -47 19t-2 46z" />
<glyph unicode="&#x202f;" horiz-adv-x="336" />
<glyph unicode="&#x2039;" horiz-adv-x="464" d="M25 340q-10 20 6 33l256 256q8 8 15 13t26 5h47q6 0 6 -5t-4 -9l-287 -281l162 -272q8 -16 -8 -17h-35q-18 0 -21.5 4.5t-9.5 12.5z" />
<glyph unicode="&#x203a;" horiz-adv-x="464" d="M20.5 66.5q-0.5 5.5 4.5 9.5l280 282l-166 271q-8 16 8 16h37q18 0 21.5 -4t9.5 -12l158 -260q10 -20 -6 -33l-254 -256q-8 -8 -15.5 -13.5t-25.5 -5.5h-45q-6 0 -6.5 5.5z" />
<glyph unicode="&#x205f;" horiz-adv-x="420" />
<glyph unicode="&#x20ac;" d="M-23 559l5 37q2 12 14 12h829q12 0 11 -12l-7 -39q-2 -8 -14 -8h-633q-4 -29 -6 -56.5t-2 -54.5q0 -78 16.5 -147.5t55.5 -121.5t105.5 -82t168.5 -30q35 0 79 1t88 4.5t87 5.5t74 6q16 0 16 -13l-2 -22q0 -12 -14 -19q-37 -12 -88 -20t-103.5 -12t-97.5 -5t-67 -1 q-106 0 -182.5 32.5t-124.5 90t-69.5 136t-21.5 171.5q0 33 3 67.5t7 69.5h-118q-10 0 -9 10zM18 768l7 39q2 12 14 12h115q29 117 75.5 218.5t119.5 176t174.5 116.5t238.5 42q33 0 80 -2t94 -6t91 -12.5t75 -20.5q12 -2 8 -18l-8 -23l-6 -9t-13 -1q-31 2 -68.5 5t-79.5 6 t-86 5t-83 2q-125 0 -214 -38.5t-150.5 -105.5t-101.5 -154t-64 -181h632q10 0 9 -12l-7 -41q0 -8 -12 -8h-829q-10 0 -11 10z" />
<glyph unicode="&#x2122;" horiz-adv-x="1261" d="M72 1307v43q0 8 12 8h424q12 0 12 -10v-41q0 -12 -12 -13h-178v-551q0 -10 -11 -10h-43h-9t-3 10v551h-180q-12 0 -12 13zM584 743v605q0 10 12 10h41q12 0 13 -3t5 -9l232 -467l235 469q6 10 17 10h37q12 0 12 -12v-603q0 -10 -10 -10h-43q-12 0 -13 10v465l-2 2 l-202 -393q-4 -12 -17 -12h-33q-10 0 -12 2t-6 12l-197 389l-4 -2v-463q0 -10 -8 -10h-43q-14 0 -14 10z" />
<glyph unicode="&#x25fc;" horiz-adv-x="993" d="M0 0v993h993v-993h-993z" />
</font>
</defs>
</svg>
